<?xml version="1.0" standalone="no"?>
<!DOCTYPE svg PUBLIC "-//W3C//DTD SVG 20010904//EN"
 "http://www.w3.org/TR/2001/REC-SVG-20010904/DTD/svg10.dtd">
<svg version="1.0" xmlns="http://www.w3.org/2000/svg"
 width="200.000000pt" height="150.000000pt" viewBox="0 0 200.000000 150.000000"
 preserveAspectRatio="xMidYMid meet">
<metadata>
Created by potrace 1.10, written by Peter Selinger 2001-2011
</metadata>
<g transform="translate(0.000000,150.000000) scale(0.100000,-0.100000)"
fill="#ff0000" stroke="none">
<path d="M1467 1479 c4 -13 8 -18 11 -10 2 7 -1 18 -6 23 -8 8 -9 4 -5 -13z"/>
<path d="M180 1459 c0 -27 -3 -31 -22 -26 -13 2 -30 7 -38 11 -9 4 -24 0 -35
-9 -19 -15 -18 -15 10 -8 27 6 29 5 17 -10 -7 -8 -12 -31 -10 -49 2 -27 7 -33
27 -33 13 0 27 7 29 15 5 13 3 13 -11 1 -15 -12 -17 -9 -17 28 0 37 2 41 25
41 23 0 25 -4 25 -40 0 -22 5 -40 10 -40 6 0 10 7 10 16 0 8 5 12 10 9 6 -3
10 -1 10 4 0 6 -6 11 -12 11 -9 0 -13 16 -12 50 1 28 -2 53 -7 56 -5 3 -9 -9
-9 -27z m-63 -106 c-3 -10 -5 -2 -5 17 0 19 2 27 5 18 2 -10 2 -26 0 -35z"/>
<path d="M825 1471 c10 -17 -25 -41 -61 -42 -46 -2 -51 -3 -59 -11 -4 -4 -14
-4 -23 -1 -15 4 -15 3 -2 -6 8 -6 23 -11 33 -11 10 0 16 -4 13 -9 -4 -5 7 -21
24 -34 16 -14 30 -32 30 -40 0 -18 24 -39 33 -30 4 3 7 -6 7 -20 0 -15 5 -27
10 -27 6 0 10 -4 10 -10 0 -5 -11 -10 -25 -10 -16 0 -25 6 -25 16 0 9 -7 30
-16 47 -9 18 -20 39 -24 47 -4 8 -27 30 -51 49 -24 18 -44 40 -44 49 0 34
-165 48 -211 17 -14 -9 -23 -19 -20 -22 3 -3 13 2 22 12 14 14 31 16 90 13 64
-3 77 -7 103 -32 28 -27 29 -31 16 -46 -38 -42 -6 -94 83 -134 42 -19 50 -30
32 -41 -13 -8 -13 -35 -1 -35 5 0 11 10 13 22 2 16 12 24 36 29 38 8 42 2 7
-11 -53 -20 -17 -90 46 -90 14 0 34 9 44 20 22 25 9 27 -18 3 -18 -17 -20 -16
-48 15 -16 18 -29 28 -29 23 0 -5 7 -14 15 -21 19 -16 19 -31 0 -24 -18 7 -30
43 -18 55 14 14 60 -6 66 -28 4 -17 5 -17 6 1 1 13 7 17 20 13 11 -3 22 1 25
8 3 8 13 11 27 8 l22 -6 -24 -19 -24 -19 28 7 c15 3 27 4 27 1 0 -11 -58 -66
-63 -60 -4 3 -35 6 -70 6 -64 0 -117 -21 -117 -47 0 -6 5 -4 10 4 8 12 10 12
10 -5 1 -18 2 -18 11 3 5 13 13 20 19 17 5 -3 10 -1 10 4 0 9 73 10 134 2 5
-1 3 -7 -3 -15 -15 -17 -4 -46 15 -39 8 3 14 9 14 15 0 5 -5 6 -10 3 -22 -14
-4 41 23 69 30 32 50 26 61 -20 5 -19 9 -22 19 -12 11 9 10 15 -5 30 -10 10
-18 23 -18 28 0 6 -7 10 -15 10 -8 0 -15 5 -15 10 0 6 12 10 28 10 15 0 35 7
44 14 16 12 15 13 -11 12 -16 -1 -27 -4 -24 -8 2 -5 -2 -8 -11 -8 -8 0 -22 -3
-32 -7 -12 -4 -15 -3 -10 6 5 8 1 14 -13 18 -12 3 -21 9 -21 14 0 5 11 4 25
-1 21 -8 25 -7 25 10 0 12 7 20 18 20 13 0 14 2 3 9 -21 14 -5 29 26 24 24 -4
25 -3 11 7 -25 16 -22 40 5 41 28 2 29 2 47 -5 21 -9 26 80 5 101 -8 8 -15 10
-15 4 0 -12 -99 -81 -115 -81 -5 0 1 10 15 21 l25 21 -33 -18 c-39 -22 -96
-90 -82 -99 6 -3 10 -2 10 2 0 5 6 17 13 27 12 16 14 16 26 -10 10 -23 10 -26
-1 -18 -8 5 -5 1 6 -9 16 -15 17 -20 6 -30 -10 -10 -11 -9 -5 3 6 11 3 10 -12
-2 -24 -22 -37 -23 -53 -3 -7 9 -19 14 -26 11 -17 -7 -46 28 -38 47 4 12 -2
18 -20 23 -19 4 -25 11 -21 23 3 11 -5 23 -25 34 -17 10 -30 25 -30 33 0 8 -1
17 -2 21 -2 4 13 8 32 9 22 1 41 10 52 24 20 25 23 40 7 40 -5 0 -8 -4 -4 -9z
m-119 -107 c14 -10 32 -33 41 -53 10 -20 19 -40 21 -44 7 -13 -73 30 -87 47
-8 9 -11 25 -8 36 3 11 1 18 -4 14 -5 -3 -9 -16 -9 -29 0 -25 47 -63 98 -79
20 -7 32 -26 15 -26 -12 0 -76 40 -100 63 -25 22 -30 56 -11 75 15 15 14 15
44 -4z m396 -9 c-3 -17 -11 -25 -26 -25 -24 0 -51 -15 -51 -28 0 -9 -30 -42
-39 -42 -18 0 -2 42 22 57 15 10 30 22 33 27 4 5 13 5 20 1 8 -5 11 -5 7 0 -4
4 0 14 10 21 25 19 30 17 24 -11z m-132 -40 c-7 -9 -15 -13 -17 -11 -7 7 7 26
19 26 6 0 6 -6 -2 -15z m-96 -107 c-5 -7 -2 -9 7 -6 8 3 23 0 34 -8 17 -12 17
-14 2 -14 -9 0 -17 5 -17 11 0 8 -4 8 -13 1 -8 -7 -18 -7 -27 -1 -13 8 -13 10
0 19 20 13 23 12 14 -2z"/>
<path d="M1992 1460 c0 -14 2 -19 5 -12 2 6 2 18 0 25 -3 6 -5 1 -5 -13z"/>
<path d="M1941 1454 c0 -11 3 -14 6 -6 3 7 2 16 -1 19 -3 4 -6 -2 -5 -13z"/>
<path d="M551 1414 c0 -11 3 -14 6 -6 3 7 2 16 -1 19 -3 4 -6 -2 -5 -13z"/>
<path d="M1950 1426 c0 -2 7 -9 15 -16 12 -10 15 -10 15 4 0 9 -7 16 -15 16
-8 0 -15 -2 -15 -4z"/>
<path d="M1183 1403 c-42 -4 -43 -5 -43 -39 0 -37 6 -37 43 -6 16 14 20 13 47
-6 32 -24 65 -31 34 -7 -19 15 -19 15 1 30 11 9 26 12 35 9 8 -4 29 -12 46
-18 48 -17 66 -37 61 -63 -2 -13 0 -23 5 -23 5 0 8 15 6 33 -3 28 -10 36 -58
60 -59 31 -94 42 -85 26 4 -5 1 -9 -4 -9 -6 0 -11 5 -11 12 0 9 -3 9 -12 0 -7
-7 -17 -12 -22 -12 -6 0 -4 5 4 10 8 5 11 9 5 8 -5 -1 -29 -3 -52 -5z"/>
<path d="M230 1371 c0 -26 19 -37 33 -21 10 10 8 11 -8 6 -16 -6 -18 -5 -7 5
16 17 15 29 -3 29 -8 0 -15 -9 -15 -19z"/>
<path d="M1471 1373 c-1 -6 -4 -20 -7 -30 -5 -17 -5 -17 6 0 6 10 9 23 6 30
-3 9 -5 9 -5 0z"/>
<path d="M400 1331 c0 -6 5 -13 10 -16 6 -3 10 -33 10 -66 0 -50 3 -59 18 -59
13 0 14 2 3 9 -10 7 -12 20 -7 49 3 24 1 51 -6 66 -11 26 -28 35 -28 17z"/>
<path d="M146 1297 c11 -6 22 -15 26 -21 12 -18 9 -84 -4 -89 -7 -3 8 -6 34
-6 26 -1 50 4 53 9 4 6 14 9 23 8 11 -2 17 4 17 16 0 26 -23 32 -32 9 -8 -21
-22 -33 -42 -33 -11 0 -12 12 -7 58 l6 57 -46 1 c-36 1 -42 -1 -28 -9z m53
-54 c-1 -53 -6 -49 -11 10 -2 20 0 37 4 37 4 0 8 -21 7 -47z m91 -23 c0 -5 -2
-10 -4 -10 -3 0 -8 5 -11 10 -3 6 -1 10 4 10 6 0 11 -4 11 -10z"/>
<path d="M1965 1300 c-3 -5 1 -10 10 -10 9 0 13 5 10 10 -3 6 -8 10 -10 10 -2
0 -7 -4 -10 -10z"/>
<path d="M1885 1290 c-3 -6 1 -7 9 -4 18 7 21 14 7 14 -6 0 -13 -4 -16 -10z"/>
<path d="M1658 1253 c12 -2 30 -2 40 0 9 3 -1 5 -23 4 -22 0 -30 -2 -17 -4z"/>
<path d="M1502 1230 c0 -14 2 -19 5 -12 2 6 2 18 0 25 -3 6 -5 1 -5 -13z"/>
<path d="M323 1233 c-7 -2 -12 -14 -12 -26 1 -17 2 -18 6 -4 2 9 11 17 18 17
9 0 12 -6 8 -17 -5 -14 -3 -16 7 -6 7 6 10 19 7 27 -7 16 -13 18 -34 9z"/>
<path d="M376 1223 c-9 -23 10 -41 27 -24 10 11 9 12 -2 6 -10 -6 -12 -2 -6
14 8 25 -10 29 -19 4z"/>
<path d="M464 1215 c20 -31 20 -49 0 -69 -8 -9 -11 -16 -6 -16 17 0 33 28 38
67 3 26 1 34 -5 23 -9 -12 -11 -12 -17 3 -3 9 -11 17 -16 17 -6 0 -3 -11 6
-25z"/>
<path d="M1890 1209 c0 -5 5 -7 10 -4 6 3 10 8 10 11 0 2 -4 4 -10 4 -5 0 -10
-5 -10 -11z"/>
<path d="M1832 1170 c-12 -10 -19 -20 -15 -22 5 -3 19 6 32 19 29 28 16 30
-17 3z"/>
<path d="M1093 1163 c-13 -2 -23 -9 -23 -15 0 -5 -7 -7 -16 -4 -11 4 -8 -2 7
-18 26 -27 40 -27 18 0 -12 15 -11 16 10 9 16 -5 21 -4 17 4 -10 15 5 13 28
-4 24 -18 62 -20 72 -3 5 8 2 9 -11 4 -22 -8 -57 2 -50 15 3 5 -2 6 -11 2 -12
-4 -15 -3 -10 5 4 7 4 11 -1 11 -4 -1 -18 -4 -30 -6z"/>
<path d="M271 1131 c-12 -12 -22 -29 -23 -38 -2 -33 -4 -38 -12 -51 -6 -10 -3
-13 10 -10 14 2 18 11 16 33 -2 17 4 39 11 50 13 16 17 17 31 6 9 -8 16 -28
16 -47 0 -19 5 -34 10 -34 7 0 9 17 6 43 -2 23 -2 36 1 29 4 -10 9 -9 24 4 18
16 19 15 29 -10 7 -18 7 -33 0 -46 -7 -13 -7 -21 0 -25 9 -6 14 1 11 18 0 4 3
7 8 7 11 0 -4 59 -18 73 -5 5 -18 6 -28 2 -28 -13 -37 -12 -55 3 -14 12 -19
11 -37 -7z"/>
<path d="M537 1115 c7 -50 6 -49 22 -22 8 12 10 19 5 14 -4 -4 -14 5 -21 20
-12 27 -12 27 -6 -12z"/>
<path d="M780 1126 c0 -2 7 -9 15 -16 9 -7 15 -8 15 -2 0 5 -7 12 -15 16 -8 3
-15 4 -15 2z"/>
<path d="M1328 1123 c7 -3 16 -2 19 1 4 3 -2 6 -13 5 -11 0 -14 -3 -6 -6z"/>
<path d="M1110 1116 c0 -2 7 -9 15 -16 9 -7 15 -8 15 -2 0 5 -7 12 -15 16 -8
3 -15 4 -15 2z"/>
<path d="M498 1092 c-18 -2 -28 -9 -29 -20 0 -14 -2 -15 -7 -2 -8 16 -42 26
-42 12 0 -10 44 -32 65 -32 8 0 15 7 15 15 0 8 5 15 11 15 6 0 8 -7 5 -16 -3
-8 -2 -12 3 -9 5 3 13 0 16 -6 4 -5 13 -8 21 -5 7 3 16 1 19 -4 6 -9 65 10 65
22 0 4 5 8 10 8 6 0 10 -7 10 -15 0 -8 5 -15 10 -15 12 0 12 3 4 24 -7 19 -40
21 -47 4 -3 -7 -6 -4 -7 7 -2 17 -3 16 -10 -5 -8 -24 -8 -24 -9 -2 -1 27 -12
28 -29 2 -13 -22 -39 -17 -44 8 -2 12 -11 16 -30 14z m92 -32 c0 -5 -5 -10
-11 -10 -5 0 -7 5 -4 10 3 6 8 10 11 10 2 0 4 -4 4 -10z"/>
<path d="M1160 1090 c-13 -8 -13 -10 2 -10 9 0 20 5 23 10 8 13 -5 13 -25 0z"/>
<path d="M1741 1084 c0 -11 3 -14 6 -6 3 7 2 16 -1 19 -3 4 -6 -2 -5 -13z"/>
<path d="M151 1074 c0 -11 3 -14 6 -6 3 7 2 16 -1 19 -3 4 -6 -2 -5 -13z"/>
<path d="M990 1080 c-22 -6 -23 -8 -7 -15 11 -4 23 -3 30 4 15 15 7 19 -23 11z"/>
<path d="M425 1050 c3 -5 8 -10 11 -10 2 0 4 5 4 10 0 6 -5 10 -11 10 -5 0 -7
-4 -4 -10z"/>
<path d="M820 969 c-29 -62 -62 -91 -148 -130 -65 -29 -65 -29 -101 -12 -20
10 -51 38 -69 63 -19 25 -43 48 -54 52 -11 5 -17 4 -13 -2 9 -15 -44 -24 -72
-11 -14 7 -28 9 -31 7 -2 -3 7 -11 21 -17 15 -7 24 -16 21 -21 -3 -5 11 -2 33
7 21 9 41 17 44 18 3 1 25 -22 48 -51 29 -36 52 -55 73 -59 27 -5 28 -7 12
-16 -10 -6 -28 -12 -39 -13 -11 -1 -19 -6 -18 -12 1 -5 -4 -13 -12 -16 -11 -4
-13 2 -9 27 3 25 2 28 -5 12 -9 -19 -10 -19 -10 3 -1 23 -15 30 -26 12 -5 -8
-11 -7 -21 1 -17 14 -29 6 -19 -11 4 -7 16 -9 27 -7 15 4 18 2 12 -15 -5 -17
-3 -20 11 -15 11 5 15 3 13 -5 -2 -7 -30 -21 -61 -32 -32 -10 -56 -20 -54 -23
11 -11 114 26 221 79 66 33 128 61 139 64 27 5 50 27 73 69 10 19 22 35 26 35
5 0 8 9 8 20 0 24 25 27 34 4 3 -9 6 -27 6 -40 0 -26 43 -118 60 -129 5 -3 10
-21 10 -39 0 -31 39 -98 40 -68 0 25 18 11 33 -26 9 -22 13 -50 9 -67 -6 -28
-7 -27 -13 15 -6 43 -6 43 -7 -17 -1 -35 2 -63 8 -63 5 0 7 6 4 14 -3 8 -1 17
5 21 6 3 11 15 11 25 0 23 23 17 57 -14 27 -25 28 -33 8 -38 -13 -2 -11 -9 10
-37 14 -19 25 -44 25 -54 0 -11 19 -38 43 -61 24 -23 52 -60 62 -84 11 -24 34
-52 54 -66 20 -13 48 -36 63 -50 30 -29 88 -46 88 -27 0 7 -6 11 -12 10 -27
-3 -38 2 -70 32 -19 19 -26 29 -15 25 11 -3 16 -2 12 4 -3 6 -12 10 -20 10 -8
0 -17 5 -21 12 -5 8 -2 9 9 5 10 -3 17 -4 17 -1 0 3 -14 10 -30 16 -25 8 -28
13 -19 24 9 11 8 14 -8 14 -22 0 -48 56 -31 66 6 4 14 0 19 -7 6 -10 9 -5 10
16 2 30 2 30 9 -5 4 -19 8 -29 9 -22 0 7 6 10 13 6 7 -5 8 -3 3 6 -4 7 -8 34
-7 59 1 40 -1 43 -10 24 -6 -13 -16 -23 -22 -23 -6 0 -5 5 2 12 7 7 12 23 12
38 0 18 -3 21 -9 11 -7 -11 -9 -11 -14 0 -3 8 -6 5 -6 -8 -2 -38 -21 -36 -56
4 -33 37 -45 61 -25 48 14 -9 12 8 -2 25 -7 8 -3 6 10 -5 14 -11 18 -21 12
-25 -7 -5 -6 -11 4 -19 11 -9 15 -9 19 1 4 10 8 10 16 -2 8 -11 11 -11 12 -2
1 6 2 18 3 25 1 6 8 10 16 8 8 -2 44 -5 80 -7 l65 -4 -50 15 c-106 34 -133 47
-144 71 -15 34 -14 42 3 19 14 -19 15 -19 35 5 11 14 20 35 21 47 0 12 4 24
10 28 11 7 2 35 -12 35 -5 0 -6 -9 -3 -20 5 -14 2 -20 -9 -20 -9 0 -16 8 -16
19 0 11 -4 22 -8 25 -4 2 -6 -11 -4 -30 3 -22 0 -34 -8 -34 -7 0 -10 -7 -6
-15 3 -8 1 -15 -4 -15 -6 0 -10 7 -10 15 0 8 -5 15 -10 15 -6 0 -9 -10 -7 -22
2 -13 2 -17 0 -10 -3 6 -8 12 -13 12 -5 0 -7 -8 -3 -17 4 -12 -4 -8 -25 11
-17 16 -29 33 -26 37 2 4 0 10 -6 14 -5 3 -10 1 -10 -6 0 -7 -25 12 -55 42
-30 30 -55 57 -55 60 0 4 20 10 45 14 25 3 63 13 83 21 34 13 35 14 7 10 -16
-2 -56 -10 -88 -17 -56 -13 -58 -13 -82 11 -14 14 -44 54 -67 90 -24 35 -48
65 -54 67 -6 2 -21 -20 -34 -48z m187 -181 c14 -21 29 -38 34 -38 5 0 36 -27
69 -59 l60 -59 0 -61 c0 -50 3 -62 20 -71 11 -6 18 -16 14 -21 -3 -6 2 -19 11
-29 14 -15 22 -17 36 -9 18 9 21 6 18 -18 -1 -5 -5 -7 -11 -5 -5 1 -7 -2 -4
-7 11 -16 -11 -22 -38 -10 -32 15 -81 112 -77 152 1 15 -2 27 -8 27 -5 0 -12
9 -16 19 -3 11 -15 23 -26 26 -10 4 -29 25 -41 48 -22 44 -37 59 -50 51 -4 -3
-10 8 -13 23 -3 15 -14 45 -24 65 -18 36 -18 36 0 25 11 -7 31 -29 46 -49z
m260 -126 c-14 -17 -16 -12 -10 23 5 25 7 27 13 10 4 -11 3 -26 -3 -33z m-13
-91 c-2 -2 -12 2 -21 10 -17 13 -17 13 0 -7 17 -20 17 -22 0 -35 -9 -8 -14 -9
-10 -2 4 6 -5 26 -20 43 -20 25 -23 34 -13 40 9 5 23 -1 40 -18 15 -15 26 -29
24 -31z"/>
<path d="M607 996 c-4 -10 -1 -13 8 -9 8 3 12 9 9 14 -7 12 -11 11 -17 -5z"/>
<path d="M1692 958 c-42 -61 -61 -75 -127 -98 -73 -25 -128 -25 -233 0 -90 22
-157 26 -147 10 3 -5 26 -10 50 -10 24 0 56 -5 72 -11 71 -27 192 -27 268 0
57 20 92 48 136 112 l16 23 37 -22 c40 -24 66 -28 66 -11 0 5 -4 8 -10 4 -5
-3 -27 6 -49 20 -23 14 -43 25 -45 25 -3 0 -18 -19 -34 -42z"/>
<path d="M1844 935 c15 -67 26 -95 38 -95 6 0 8 3 5 7 -4 3 1 12 10 18 13 10
24 10 50 -1 18 -8 33 -11 33 -6 0 4 -12 13 -27 19 -16 7 -48 29 -72 50 l-44
38 7 -30z m52 -57 c4 -7 3 -8 -4 -4 -7 4 -12 2 -12 -5 0 -7 -3 -10 -6 -6 -6 5
3 27 11 27 2 0 7 -5 11 -12z"/>
<path d="M285 910 c-16 -17 -52 -42 -80 -55 -36 -18 -42 -23 -20 -19 44 9 84
35 113 72 31 40 25 41 -13 2z"/>
<path d="M1751 860 l0 -45 15 30 14 30 -5 -30 c-5 -27 -4 -28 9 -12 9 11 17
14 21 8 6 -11 55 -12 55 -1 -1 17 -19 30 -34 24 -10 -4 -25 1 -36 11 -11 10
-20 14 -20 9 0 -5 -5 -2 -10 6 -7 11 -10 3 -9 -30z"/>
<path d="M813 848 c-5 -34 -8 -38 -14 -23 -6 15 -8 12 -8 -15 -1 -27 2 -31 9
-20 18 26 -2 -70 -27 -134 -13 -33 -34 -77 -48 -98 -14 -21 -28 -55 -31 -75
-3 -21 -10 -54 -17 -73 -12 -39 -33 -68 -25 -35 3 11 7 25 8 30 1 6 1 24 0 40
-2 30 -2 30 -10 5 -8 -25 -8 -25 -9 5 l-2 30 -13 -25 c-8 -14 -12 -28 -10 -32
2 -3 -9 -16 -26 -28 -19 -14 -30 -30 -30 -46 0 -17 -6 -24 -19 -24 -11 0 -23
5 -26 10 -4 7 -13 6 -27 -1 -17 -9 -18 -13 -7 -20 8 -5 27 -9 42 -9 16 0 38
-5 50 -11 20 -9 20 -9 5 4 -16 13 -17 17 -2 45 8 17 24 34 35 37 11 4 16 11
13 18 -5 8 -2 7 7 -1 11 -10 11 -16 2 -32 -7 -10 -9 -20 -5 -22 14 -6 42 -80
42 -111 0 -18 -11 -52 -24 -77 -13 -25 -26 -65 -30 -90 -5 -41 -5 -42 5 -12
11 36 24 44 16 10 -5 -20 -2 -23 24 -24 22 -1 29 3 25 13 -4 8 -6 19 -6 24 0
5 -5 9 -11 9 -6 0 -9 -7 -5 -15 3 -8 1 -15 -5 -15 -6 0 -8 11 -4 29 3 17 2 32
-4 36 -7 4 -3 17 11 35 26 36 29 102 6 147 -14 27 -14 34 -2 44 8 6 14 8 15 3
0 -5 9 29 19 76 10 47 16 87 14 89 -2 3 6 16 19 30 32 35 85 173 92 241 4 30
8 65 11 78 2 12 0 22 -6 22 -5 0 -13 -19 -17 -42z"/>
<path d="M50 861 c0 -6 4 -13 10 -16 6 -3 7 1 4 9 -7 18 -14 21 -14 7z"/>
<path d="M346 845 c7 -39 22 -54 34 -35 13 20 13 63 0 55 -5 -3 -10 -16 -10
-28 -1 -19 -3 -18 -16 8 l-14 30 6 -30z"/>
<path d="M864 861 c8 -12 8 -108 2 -205 -3 -40 -11 -68 -26 -88 -22 -30 -22
-30 -3 -56 27 -36 43 -39 43 -7 0 14 7 39 15 54 10 20 13 50 10 102 -8 134
-19 202 -34 207 -8 3 -11 0 -7 -7z"/>
<path d="M1718 840 c-3 -20 0 -30 9 -30 8 0 13 12 13 30 0 17 -4 30 -9 30 -5
0 -11 -13 -13 -30z"/>
<path d="M1679 818 c-1 -23 -3 -26 -6 -10 -4 22 -17 29 -27 14 -3 -5 -3 -18 0
-30 5 -18 9 -19 30 -10 15 7 24 20 24 34 0 37 -20 39 -21 2z"/>
<path d="M320 819 c0 -11 5 -17 10 -14 6 3 10 13 10 21 0 8 -4 14 -10 14 -5 0
-10 -9 -10 -21z"/>
<path d="M400 825 c0 -8 2 -15 4 -15 2 0 6 7 10 15 3 8 1 15 -4 15 -6 0 -10
-7 -10 -15z"/>
<path d="M675 793 c-27 -24 -45 -43 -39 -41 14 4 97 78 92 83 -1 2 -25 -17
-53 -42z"/>
<path d="M740 785 l-35 -35 28 0 c21 0 27 5 28 23 1 18 3 16 9 -8 7 -28 8 -27
9 13 0 23 0 42 -1 41 -2 0 -19 -16 -38 -34z"/>
<path d="M114 767 c4 -27 2 -36 -7 -31 -7 4 -9 4 -5 -1 4 -4 3 -14 -3 -22 -9
-10 -8 -13 2 -12 26 1 44 14 46 32 0 10 -2 16 -5 12 -4 -3 -12 9 -19 27 l-13
33 4 -38z"/>
<path d="M1091 792 c-1 -7 -6 -10 -12 -6 -7 4 -10 1 -7 -7 3 -8 11 -13 17 -11
7 1 11 -5 9 -14 -2 -9 3 -19 10 -21 6 -3 12 0 12 7 0 6 4 9 9 5 9 -5 61 39 61
50 0 3 -15 3 -32 1 -18 -3 -36 -5 -40 -5 -4 -1 -5 -8 -2 -16 4 -8 3 -15 0 -15
-4 0 -11 10 -16 23 -5 12 -9 16 -9 9z"/>
<path d="M1575 776 c-38 -17 -45 -24 -32 -29 9 -3 17 -2 17 3 0 6 3 9 8 9 29
-5 52 3 52 19 0 14 2 15 10 2 8 -13 10 -12 10 3 0 21 -4 21 -65 -7z"/>
<path d="M330 780 c0 -5 -7 -7 -16 -3 -15 5 -15 3 1 -20 18 -29 31 -33 55 -17
12 8 9 10 -12 10 -21 0 -25 4 -21 20 3 11 3 20 -1 20 -3 0 -6 -4 -6 -10z"/>
<path d="M170 765 c-8 -65 -8 -65 18 -60 30 5 42 15 18 15 -12 0 -16 5 -12 16
3 8 2 12 -3 9 -5 -3 -12 5 -14 17 -4 21 -5 21 -7 3z"/>
<path d="M1490 750 c0 -5 7 -7 15 -4 8 4 15 8 15 10 0 2 -7 4 -15 4 -8 0 -15
-4 -15 -10z"/>
<path d="M256 741 c-4 -5 -3 -17 1 -27 4 -10 2 -15 -3 -11 -6 3 -10 -2 -11
-12 -1 -14 4 -16 30 -12 18 3 25 6 15 9 -10 2 -15 9 -11 18 3 8 0 14 -6 14 -6
0 -8 7 -5 15 7 16 -1 21 -10 6z"/>
<path d="M41 724 c0 -11 3 -14 6 -6 3 7 2 16 -1 19 -3 4 -6 -2 -5 -13z"/>
<path d="M300 730 c0 -5 5 -10 11 -10 5 0 7 5 4 10 -3 6 -8 10 -11 10 -2 0 -4
-4 -4 -10z"/>
<path d="M687 733 c-12 -11 -8 -25 5 -17 7 5 9 2 5 -9 -4 -11 -2 -14 7 -11 8
3 17 1 21 -5 12 -20 25 -11 25 15 0 20 -4 25 -16 20 -9 -4 -22 -2 -29 4 -6 5
-15 7 -18 3z m53 -23 c0 -5 -5 -10 -11 -10 -5 0 -7 5 -4 10 3 6 8 10 11 10 2
0 4 -4 4 -10z"/>
<path d="M1227 733 c-4 -3 -7 -11 -7 -17 0 -6 5 -5 12 2 6 6 9 14 7 17 -3 3
-9 2 -12 -2z"/>
<path d="M1316 725 c-3 -9 -6 -18 -6 -20 0 -4 48 2 75 8 11 3 26 6 33 6 6 1
12 5 12 11 0 5 -11 9 -25 8 -14 -1 -25 -5 -25 -8 0 -10 -44 -6 -51 3 -3 5 -9
1 -13 -8z"/>
<path d="M538 666 c-39 -37 -60 -65 -69 -95 -7 -23 -29 -60 -48 -82 -31 -35
-43 -41 -83 -44 -42 -2 -53 -8 -92 -51 -42 -45 -59 -73 -37 -60 5 4 11 3 14
-1 2 -5 3 -3 1 3 -1 7 9 22 23 35 l26 24 -17 -33 c-16 -32 -15 -52 5 -52 5 0
9 5 9 11 0 5 -4 7 -10 4 -16 -10 -12 5 10 40 11 19 19 39 18 46 -2 8 19 16 61
23 61 10 66 13 97 59 19 27 38 64 43 84 7 23 29 52 63 83 29 26 51 50 48 53
-3 3 -31 -18 -62 -47z"/>
<path d="M631 696 c-1 -10 -8 -24 -15 -30 -17 -13 -35 -73 -19 -63 6 4 8 -3 6
-17 -3 -13 1 -27 7 -31 10 -6 12 4 8 44 -3 31 -2 47 3 39 7 -10 9 -10 10 2 0
10 3 8 9 -5 12 -28 12 -37 0 -30 -6 4 -10 -7 -9 -27 1 -18 3 -25 6 -15 2 9 9
17 14 17 11 0 3 79 -12 115 -7 19 -8 19 -8 1z"/>
<path d="M658 704 c-9 -14 2 -55 13 -48 5 2 7 -12 6 -32 -1 -24 3 -39 12 -42
11 -4 12 3 6 34 -4 22 -10 44 -15 49 -4 6 -10 19 -12 30 -2 12 -6 16 -10 9z"/>
<path d="M345 680 c-3 -6 -4 -18 -1 -28 5 -14 14 -17 41 -14 19 2 35 9 35 14
0 6 -7 7 -16 4 -8 -3 -12 -2 -9 4 8 13 -8 13 -22 -1 -8 -8 -13 -7 -18 2 -5 8
-4 10 3 5 7 -4 12 -3 12 3 0 15 -18 23 -25 11z"/>
<path d="M1817 667 c-3 -8 1 -14 8 -14 7 0 11 6 8 14 -3 7 -6 13 -8 13 -2 0
-5 -6 -8 -13z"/>
<path d="M967 636 c-4 -10 -7 -24 -7 -33 0 -17 -24 -43 -40 -43 -6 0 -10 -5
-8 -11 2 -6 7 -10 11 -10 4 1 16 1 26 1 16 0 21 9 26 44 8 50 3 81 -8 52z"/>
<path d="M993 600 c0 -30 2 -43 4 -27 2 15 2 39 0 55 -2 15 -4 2 -4 -28z"/>
<path d="M711 614 c0 -11 3 -14 6 -6 3 7 2 16 -1 19 -3 4 -6 -2 -5 -13z"/>
<path d="M1808 618 c5 -5 16 -8 23 -6 8 3 3 7 -10 11 -17 4 -21 3 -13 -5z"/>
<path d="M565 608 c-4 -10 -11 -15 -16 -12 -5 3 -9 -4 -9 -15 0 -12 5 -21 11
-21 8 0 8 -4 1 -13 -7 -8 -7 -18 -2 -27 6 -10 10 -7 16 16 l8 29 6 -25 c5 -22
7 -23 11 -5 3 11 -1 36 -7 55 -10 28 -14 31 -19 18z"/>
<path d="M1473 567 c-18 -6 -33 -15 -33 -20 0 -5 7 -6 16 -3 9 3 27 9 40 12
13 3 24 10 24 15 0 10 -3 10 -47 -4z"/>
<path d="M1530 571 c0 -5 12 -18 28 -29 43 -31 102 -62 102 -54 -1 11 -130 94
-130 83z"/>
<path d="M335 560 c-3 -6 1 -7 9 -4 18 7 21 14 7 14 -6 0 -13 -4 -16 -10z"/>
<path d="M1760 560 c-8 -5 -12 -12 -9 -15 4 -3 12 1 19 10 14 17 11 19 -10 5z"/>
<path d="M502 548 c-7 -7 -12 -20 -12 -30 0 -9 -8 -21 -17 -27 -10 -5 -14 -13
-9 -18 5 -4 11 -2 13 5 3 6 8 10 13 7 10 -6 36 24 44 53 8 25 -11 31 -32 10z
m-1 -51 c-10 -9 -11 -8 -5 6 3 10 9 15 12 12 3 -3 0 -11 -7 -18z"/>
<path d="M1506 503 c-4 -13 -11 -23 -15 -23 -13 0 -31 -49 -30 -83 0 -27 2
-29 9 -12 9 20 9 20 11 0 1 -11 5 3 9 30 6 46 7 47 8 13 1 -21 7 -38 13 -38 8
0 9 16 5 48 l-5 47 13 -35 c7 -19 11 -39 8 -45 -3 -5 4 -1 16 9 12 11 22 26
22 35 0 26 18 -2 22 -33 2 -16 9 -32 17 -34 10 -3 12 0 7 13 -5 15 -4 16 9 5
13 -10 15 -9 15 9 0 12 -4 20 -9 16 -5 -3 -12 4 -16 15 -4 11 -10 18 -15 15
-5 -3 -11 -1 -15 5 -4 6 -10 8 -15 5 -5 -3 -11 4 -15 15 -3 11 -12 20 -20 20
-7 0 -15 6 -18 13 -2 7 -7 2 -11 -10z"/>
<path d="M788 458 c-8 -29 -14 -79 -12 -111 2 -35 -3 -72 -12 -93 -8 -20 -10
-33 -5 -29 7 4 11 -4 11 -18 0 -24 38 -83 47 -73 2 2 -3 18 -11 35 -9 16 -16
43 -15 58 0 25 1 26 10 8 7 -15 8 -10 3 19 -5 34 -3 38 13 32 16 -5 16 -5 2 6
-9 7 -15 24 -14 38 1 20 7 25 28 23 30 -2 31 -1 17 46 -7 24 -6 39 2 48 6 7 8
16 4 20 -3 3 -6 0 -6 -8 0 -8 -10 1 -21 19 -12 17 -22 32 -24 32 -1 0 -9 -24
-17 -52z m37 -47 c2 -11 7 -26 10 -31 3 -6 2 -10 -3 -10 -12 0 -30 42 -24 58
5 17 11 11 17 -17z"/>
<path d="M1012 490 c0 -14 2 -19 5 -12 2 6 2 18 0 25 -3 6 -5 1 -5 -13z"/>
<path d="M1730 497 c-30 -5 -49 -12 -42 -14 19 -7 101 6 107 18 4 5 3 8 -2 8
-4 -1 -33 -6 -63 -12z"/>
<path d="M947 440 c2 -30 4 -74 4 -98 0 -36 2 -41 14 -29 7 8 13 30 12 48 -1
19 1 46 5 60 6 19 4 26 -8 26 -8 0 -13 -6 -10 -14 3 -7 1 -13 -4 -13 -5 0 -11
17 -13 38 -2 20 -2 12 0 -18z"/>
<path d="M1371 485 c-1 -13 -4 -16 -9 -8 -4 7 -13 9 -21 4 -9 -6 -11 -20 -6
-50 8 -51 26 -55 19 -3 -5 36 -5 36 9 13 8 -14 13 -31 10 -38 -3 -7 0 -13 6
-13 6 0 11 -8 12 -17 0 -10 2 -13 5 -8 2 6 -2 39 -10 75 -8 36 -15 56 -15 45z"/>
<path d="M1809 488 c-1 -7 -1 -17 0 -21 3 -17 -21 -47 -32 -41 -7 4 -5 -1 4
-12 9 -10 20 -26 24 -34 7 -12 5 -12 -11 1 -25 21 -54 31 -54 19 0 -6 -8 -10
-17 -10 -15 0 -16 -2 -3 -10 19 -12 33 -13 25 -1 -3 6 4 9 15 8 11 -1 20 -7
20 -14 0 -7 9 -13 21 -13 17 0 19 4 13 23 -4 12 -12 25 -18 29 -8 6 -7 8 2 8
21 0 27 -5 24 -19 -2 -7 1 -10 6 -7 6 3 13 0 15 -6 3 -8 6 -5 6 5 1 10 -4 28
-10 40 l-11 22 21 -22 c18 -19 30 -22 71 -19 27 3 57 10 67 16 15 9 12 10 -17
7 -19 -3 -42 -8 -51 -12 -10 -3 -32 9 -62 35 -27 25 -47 36 -48 28z"/>
<path d="M904 456 c-5 -14 -9 -15 -16 -4 -6 8 -8 -13 -4 -61 3 -41 9 -77 14
-80 5 -3 12 -13 15 -21 3 -8 6 7 6 33 1 30 -3 46 -9 42 -13 -8 -13 20 0 64 10
36 5 57 -6 27z"/>
<path d="M1401 440 c-2 -29 12 -90 20 -90 5 0 9 16 9 36 0 19 -4 33 -9 29 -5
-3 -12 5 -14 17 -2 13 -5 16 -6 8z"/>
<path d="M862 420 c0 -14 2 -19 5 -12 2 6 2 18 0 25 -3 6 -5 1 -5 -13z"/>
<path d="M1652 405 c0 -16 2 -22 5 -12 2 9 2 23 0 30 -3 6 -5 -1 -5 -18z"/>
<path d="M1557 413 c-11 -11 -8 -20 8 -20 8 0 15 6 15 14 0 14 -12 17 -23 6z"/>
<path d="M990 395 c-3 -32 1 -79 9 -87 3 -4 5 12 3 35 -4 56 -9 77 -12 52z"/>
<path d="M285 366 c-13 -20 -14 -29 -5 -46 7 -12 18 -19 26 -16 9 3 14 -1 15
-12 0 -13 2 -12 9 5 11 26 2 65 -14 60 -6 -2 -10 -11 -8 -20 1 -8 -2 -18 -7
-22 -6 -3 -9 6 -8 22 1 15 8 31 16 34 10 4 11 8 3 13 -6 4 -18 -4 -27 -18z"/>
<path d="M1014 357 c5 -37 28 -72 40 -60 3 4 6 18 6 32 -1 25 -1 26 -16 6 -16
-20 -16 -20 -10 1 4 12 0 28 -10 40 -15 18 -15 17 -10 -19z"/>
<path d="M1869 347 c6 -8 24 -14 40 -15 17 0 38 -5 48 -11 26 -13 42 -1 32 24
-7 18 -8 18 -9 -5 l-1 -25 -10 24 c-7 18 -12 21 -23 12 -7 -6 -15 -9 -17 -7
-2 2 -19 6 -38 10 -27 5 -31 4 -22 -7z"/>
<path d="M824 339 c-3 -5 -2 -15 3 -21 4 -7 8 -40 8 -72 0 -39 4 -61 13 -63 9
-4 10 2 4 19 -11 32 -4 58 16 58 14 0 15 -2 2 -10 -8 -5 -11 -12 -7 -16 17
-17 29 16 23 59 -6 37 -11 46 -32 50 -13 2 -27 0 -30 -4z"/>
<path d="M1455 339 c-4 -6 -5 -12 -2 -15 2 -3 7 2 10 11 7 17 1 20 -8 4z"/>
<path d="M430 333 c-8 -2 -24 -8 -35 -13 -11 -4 -28 -11 -39 -14 -16 -5 -16
-9 -5 -23 13 -15 14 -15 18 2 2 15 5 15 12 4 8 -12 11 -11 19 2 5 9 21 20 35
23 14 4 25 11 25 16 0 11 -6 11 -30 3z"/>
<path d="M1070 306 c0 -14 29 -31 38 -22 5 5 -23 36 -32 36 -3 0 -6 -6 -6 -14z"/>
<path d="M1136 311 c-11 -17 -18 -98 -7 -82 13 21 31 4 32 -32 1 -21 4 -14 9
23 9 62 5 74 -16 46 -8 -11 -14 -15 -14 -10 0 6 5 15 11 21 7 7 8 17 1 28 -6
12 -12 14 -16 6z"/>
<path d="M445 281 c62 -13 141 -20 124 -11 -7 4 -48 10 -89 13 -52 4 -63 4
-35 -2z"/>
<path d="M531 243 c0 -6 -4 -20 -7 -30 -5 -14 -4 -15 5 -7 7 7 11 20 8 30 -3
11 -5 14 -6 7z"/>
<path d="M494 198 c2 -29 0 -48 -7 -51 -23 -7 29 -13 63 -6 l35 6 -39 2 -39 1
19 23 c10 12 15 18 9 14 -5 -4 -17 7 -27 25 l-18 33 4 -47z"/>
<path d="M1187 214 c-3 -16 1 -28 9 -31 8 -3 11 -9 8 -14 -3 -5 0 -9 5 -9 16
0 13 49 -3 65 -12 12 -15 11 -19 -11z"/>
<path d="M1500 236 c0 -2 8 -10 18 -17 15 -13 16 -12 3 4 -13 16 -21 21 -21
13z"/>
<path d="M1821 204 c0 -11 3 -14 6 -6 3 7 2 16 -1 19 -3 4 -6 -2 -5 -13z"/>
<path d="M807 190 c3 -11 9 -20 14 -20 11 0 11 3 3 24 -9 23 -23 20 -17 -4z"/>
<path d="M1234 194 c3 -9 6 -18 6 -20 0 -2 4 -4 9 -4 5 0 7 9 4 20 -3 11 -10
20 -15 20 -6 0 -7 -7 -4 -16z"/>
<path d="M161 174 c0 -11 3 -14 6 -6 3 7 2 16 -1 19 -3 4 -6 -2 -5 -13z"/>
<path d="M725 170 c-5 -9 -4 -11 3 -6 7 4 12 1 12 -9 0 -9 -4 -14 -8 -11 -5 3
-8 -20 -8 -51 0 -30 2 -51 4 -45 2 6 10 8 19 5 10 -4 14 -2 10 4 -4 6 -1 13 5
16 10 3 10 7 0 20 -8 9 -12 22 -10 28 2 7 11 -3 20 -22 l17 -34 -1 35 c-1 33
-28 92 -28 60 0 -10 -4 -9 -13 5 -11 14 -16 15 -22 5z"/>
<path d="M1475 169 c-4 -5 14 -9 39 -9 l46 0 -3 -35 c-1 -19 -7 -35 -13 -35
-12 0 -25 -35 -17 -44 11 -10 45 33 39 50 -5 12 -2 15 10 10 9 -3 33 -9 54
-12 32 -5 37 -9 32 -27 -3 -14 -1 -18 6 -13 7 4 12 3 12 -3 0 -17 -20 -23 -26
-7 -4 10 -17 14 -42 13 -29 -2 -38 -7 -40 -22 -2 -15 3 -21 18 -22 15 -1 20 3
16 13 -3 8 -1 14 4 14 6 0 10 -8 10 -17 0 -14 2 -15 9 -4 6 10 10 10 16 1 4
-6 13 -9 20 -6 8 3 16 0 19 -7 2 -7 5 -3 5 8 1 15 3 17 10 6 5 -7 24 -15 42
-17 32 -3 33 -3 14 11 -11 9 -25 13 -32 11 -8 -3 -13 2 -13 12 0 33 -29 60
-71 67 -31 5 -45 14 -58 36 -9 16 -23 29 -31 30 -8 0 -27 2 -42 4 -15 2 -30
-1 -33 -6z"/>
<path d="M1642 160 c0 -14 2 -19 5 -12 2 6 2 18 0 25 -3 6 -5 1 -5 -13z"/>
<path d="M1240 150 c0 -5 5 -10 10 -10 6 0 10 5 10 10 0 6 -4 10 -10 10 -5 0
-10 -4 -10 -10z"/>
<path d="M1811 144 c0 -11 3 -14 6 -6 3 7 2 16 -1 19 -3 4 -6 -2 -5 -13z"/>
<path d="M1860 131 c0 -6 4 -13 10 -16 6 -3 7 1 4 9 -7 18 -14 21 -14 7z"/>
<path d="M1081 123 c-1 -6 3 -14 7 -17 12 -7 38 12 29 21 -5 4 -12 1 -16 -6
-7 -11 -10 -11 -14 0 -3 9 -6 10 -6 2z"/>
<path d="M1408 106 c-6 -14 -18 -28 -26 -31 -12 -5 -12 -1 3 15 28 31 12 34
-20 3 -16 -16 -25 -21 -20 -13 4 8 -6 2 -23 -14 -18 -17 -32 -35 -32 -40 0 -6
5 -4 10 4 8 13 11 13 19 1 7 -11 11 -9 20 8 20 36 47 26 42 -16 -1 -7 2 -13 8
-13 8 0 14 16 27 75 1 6 5 18 9 28 11 26 -4 20 -17 -7z m-75 -51 c-3 -9 -8
-14 -10 -11 -3 3 -2 9 2 15 9 16 15 13 8 -4z"/>
<path d="M1030 110 c0 -5 5 -10 11 -10 5 0 7 5 4 10 -3 6 -8 10 -11 10 -2 0
-4 -4 -4 -10z"/>
<path d="M107 92 c-19 -21 -22 -38 -8 -46 5 -4 7 3 4 14 -3 11 -1 20 5 20 5 0
12 7 16 15 7 20 3 19 -17 -3z"/>
<path d="M1087 79 c7 -7 15 -10 18 -7 3 3 -2 9 -12 12 -14 6 -15 5 -6 -5z"/>
<path d="M1946 57 c3 -10 9 -15 12 -12 3 3 0 11 -7 18 -10 9 -11 8 -5 -6z"/>
<path d="M1497 40 c-4 -17 -10 -20 -26 -15 -15 4 -21 2 -21 -8 0 -9 10 -14 25
-14 14 0 25 5 25 12 0 8 4 15 10 17 5 2 6 9 1 16 -6 10 -10 8 -14 -8z"/>
<path d="M1355 31 c-3 -5 -1 -12 4 -15 5 -3 11 1 15 9 6 16 -9 21 -19 6z"/>
<path d="M1073 23 c9 -2 25 -2 35 0 9 3 1 5 -18 5 -19 0 -27 -2 -17 -5z"/>
<path d="M1516 11 c-3 -5 5 -9 19 -9 14 0 22 4 19 9 -7 12 -31 12 -38 0z"/>
</g>
</svg>
