<?xml version="1.0" standalone="no"?>
<!DOCTYPE svg PUBLIC "-//W3C//DTD SVG 20010904//EN"
 "http://www.w3.org/TR/2001/REC-SVG-20010904/DTD/svg10.dtd">
<svg version="1.0" xmlns="http://www.w3.org/2000/svg"
 width="300.000000pt" height="244.000000pt" viewBox="0 0 300.000000 244.000000"
 preserveAspectRatio="xMidYMid meet">
<metadata>
Created by potrace 1.10, written by Peter Selinger 2001-2011
</metadata>
<g transform="translate(0.000000,244.000000) scale(0.100000,-0.100000)"
fill="#000000" stroke="none">
<path d="M1597 2403 c-44 -102 -68 -285 -48 -373 8 -40 9 -36 6 35 -2 44 -2
69 1 55 37 -201 112 -420 144 -420 18 0 10 30 -14 57 -13 14 -22 32 -19 40 4
10 13 3 30 -22 13 -19 30 -35 37 -35 8 0 20 -7 27 -17 13 -15 12 -15 -8 -5
-12 7 -24 8 -27 4 -9 -14 24 -52 45 -52 17 0 18 3 9 20 -6 11 -8 20 -5 20 3 0
-8 20 -25 44 -36 54 -110 204 -110 225 0 9 -9 45 -20 79 -11 35 -20 77 -20 93
0 17 -4 28 -9 25 -13 -8 -32 44 -24 68 6 19 7 18 13 -9 5 -20 7 -6 8 42 1 49
8 88 21 118 11 25 16 45 12 45 -4 0 -15 -17 -24 -37z"/>
<path d="M2866 2364 c-8 -21 -4 -25 14 -14 11 7 12 12 4 20 -8 8 -13 7 -18 -6z"/>
<path d="M1300 2041 c0 -10 -13 -44 -30 -75 -16 -31 -34 -80 -41 -109 -11 -44
-20 -58 -64 -94 -89 -73 -218 -118 -353 -124 -43 -2 -56 1 -72 19 -34 36 -86
26 -95 -18 -2 -12 -6 -24 -8 -27 -8 -7 -113 20 -144 38 -18 10 -33 15 -33 10
0 -19 36 -35 179 -77 11 -3 11 -7 1 -19 -7 -9 -11 -16 -9 -18 59 -34 76 -37
182 -37 62 0 148 -7 192 -16 44 -8 106 -19 139 -24 93 -14 135 -67 134 -169
-1 -34 -5 -45 -19 -48 -11 -3 -19 -12 -19 -20 0 -9 6 -13 15 -9 8 3 20 0 27
-7 7 -7 22 -12 33 -12 11 0 29 -14 41 -33 14 -20 24 -28 28 -20 3 10 8 9 15
-4 6 -9 27 -32 46 -52 44 -46 64 -84 72 -143 5 -41 4 -46 -11 -40 -10 4 -24 7
-31 7 -8 0 -24 10 -36 23 -17 17 -20 18 -16 5 4 -12 0 -21 -13 -28 -28 -15
-50 -12 -50 6 0 14 -3 14 -15 4 -11 -10 -13 -15 -5 -20 8 -5 1 -11 -17 -18
-15 -5 -36 -13 -45 -17 -15 -6 -18 -2 -18 19 0 73 -91 187 -167 210 -19 6 -23
4 -23 -13 0 -13 7 -21 18 -21 16 -1 16 -1 0 -14 -24 -17 -23 -36 1 -36 22 0
33 21 20 41 -16 26 -9 34 10 12 11 -13 23 -23 28 -23 16 0 62 -54 78 -93 l15
-38 -25 7 c-15 4 -25 2 -25 -5 0 -6 11 -11 25 -11 20 0 25 -5 25 -24 0 -19
-12 -31 -54 -54 -29 -17 -70 -50 -90 -73 -31 -36 -36 -39 -36 -21 0 13 -6 22
-15 22 -8 0 -15 -7 -15 -15 0 -19 22 -68 35 -77 17 -13 35 -9 35 7 0 8 4 15 9
15 5 0 7 -10 3 -22 -3 -14 -2 -19 6 -14 7 4 12 2 12 -5 0 -10 3 -10 12 -1 16
16 28 15 28 -2 0 -8 5 -18 10 -21 6 -4 10 -3 9 2 -1 4 2 19 8 33 l10 24 12
-22 c16 -30 35 -29 27 2 -5 21 -3 23 22 18 17 -4 21 -7 10 -10 -24 -5 -19 -42
7 -42 16 0 17 2 5 10 -8 5 -13 10 -10 11 3 0 14 3 25 5 11 2 28 5 38 6 10 1
17 11 17 23 1 18 2 18 11 3 14 -24 61 -20 53 4 -3 10 -1 18 4 18 6 0 12 -5 14
-11 6 -19 69 0 66 19 -3 14 6 17 50 15 44 -1 51 1 42 12 -14 17 2 29 29 20 25
-8 51 4 44 21 -3 8 0 14 6 14 6 0 11 -5 11 -11 0 -6 10 -9 23 -8 32 4 66 -10
77 -32 6 -10 17 -19 25 -19 8 0 15 -5 15 -11 0 -18 -20 -49 -32 -49 -6 0 -5 7
3 17 13 16 12 17 -3 5 -10 -8 -20 -22 -23 -33 -4 -11 -11 -17 -16 -14 -5 4
-12 -1 -15 -9 -9 -22 -23 -10 -17 14 3 11 10 17 16 13 6 -3 7 -1 3 5 -4 7 -3
12 1 12 5 0 18 7 29 15 18 14 17 14 -11 4 -24 -8 -28 -8 -17 2 6 7 12 22 11
34 0 14 -2 16 -6 5 -3 -8 -11 -22 -18 -30 -7 -8 -13 -22 -13 -30 0 -8 -3 -34
-7 -58 -7 -42 -6 -43 14 -30 12 7 21 16 21 20 0 3 16 16 35 28 47 29 57 50 48
102 -6 38 -8 40 -14 18 -7 -23 -7 -23 -8 7 -1 33 19 74 76 154 41 58 43 75 3
29 -21 -25 -29 -30 -30 -18 0 9 4 19 9 22 11 7 10 76 -1 76 -9 0 -24 -58 -19
-75 1 -6 -1 -6 -8 0 -6 6 -15 28 -20 50 l-9 40 -1 -56 c-1 -80 -19 -161 -38
-179 -14 -14 -15 -13 -8 5 4 11 10 30 12 43 4 18 2 21 -12 15 -13 -4 -16 -3
-11 5 4 7 2 12 -4 12 -7 0 -9 -8 -5 -19 4 -14 0 -23 -15 -31 -22 -12 -27 -1
-8 18 8 8 9 15 3 20 -14 10 -15 55 -1 64 7 5 5 12 -8 21 -17 13 -17 15 -3 44
9 17 13 34 9 38 -4 5 0 6 9 3 9 -4 16 -1 16 7 0 8 -9 12 -22 9 -18 -3 -22 1
-22 26 0 24 5 30 23 30 12 0 24 -7 28 -15 3 -8 1 -15 -5 -15 -6 0 -4 -7 5 -15
8 -9 18 -32 21 -53 11 -63 13 -60 14 18 0 41 -5 104 -12 140 l-12 65 -23 -37
c-13 -21 -27 -38 -30 -38 -4 0 -18 16 -32 35 -27 37 -47 47 -35 18 24 -63 63
-372 49 -395 -5 -7 -52 -30 -87 -42 -11 -3 -27 2 -39 14 -12 11 -16 20 -9 20
7 0 9 5 5 12 -5 8 -2 9 9 5 12 -5 17 -1 17 13 0 11 5 20 10 20 6 0 10 -8 8
-17 -2 -13 3 -17 20 -16 13 2 21 -1 17 -6 -3 -6 4 -9 15 -8 11 1 20 4 20 7 0
9 -64 49 -98 61 -17 6 -32 17 -32 25 0 8 -9 41 -21 74 -22 65 -23 64 27 120
12 14 30 45 40 70 9 25 23 52 31 61 19 22 16 31 -8 24 -20 -7 -20 -6 -4 25 9
18 21 60 25 92 5 33 16 68 24 77 25 28 18 34 -13 12 -33 -24 -46 -27 -34 -8 4
6 10 38 13 69 5 51 4 57 -11 53 -13 -4 -15 0 -11 20 2 14 -1 53 -8 87 -12 54
-14 58 -23 37 -8 -22 -10 -19 -23 30 -17 64 -20 69 -37 52 -9 -9 -9 -14 0 -19
16 -10 33 -57 33 -89 0 -25 0 -26 20 -8 20 18 20 17 22 -16 3 -56 -3 -103 -13
-114 -7 -7 -8 12 -5 55 5 53 4 61 -5 43 -19 -36 -26 -28 -33 38 -7 74 -16 91
-29 58 -6 -16 -11 -19 -14 -11 -3 8 0 19 5 24 8 8 0 19 -25 39 -37 30 -48 34
-56 22 -2 -5 -3 -3 -1 3 1 6 -7 16 -17 22 -15 10 -19 24 -19 75 l-1 62 -19
-36 c-10 -19 -25 -41 -33 -47 -12 -10 -15 -6 -20 24 -4 20 -4 57 0 80 3 24 3
44 -1 44 -3 0 -6 -9 -6 -19z m-5 -125 c14 -21 14 -26 0 -52 -18 -36 -19 -74
-2 -74 8 0 26 14 40 30 27 30 47 39 47 20 0 -5 -7 -10 -15 -10 -8 0 -15 -7
-15 -15 0 -8 -13 -23 -30 -34 -16 -10 -27 -21 -23 -24 15 -15 46 -5 71 23 29
31 39 29 60 -7 16 -29 15 -41 -3 -59 -8 -9 -15 -25 -15 -38 0 -12 -5 -27 -11
-33 -7 -7 -7 -22 1 -51 12 -46 22 -56 49 -47 24 7 18 35 -15 66 -13 12 -24 27
-24 33 0 6 5 5 12 -2 7 -7 15 -12 19 -12 11 0 17 47 7 63 -5 9 -2 28 7 49 14
32 14 32 15 7 0 -34 26 -86 33 -67 3 7 4 3 4 -9 -1 -12 -7 -25 -14 -27 -7 -3
-12 -2 -12 2 4 27 -5 31 -11 4 -11 -47 -2 -72 25 -72 24 0 41 25 25 35 -6 4
-10 1 -10 -4 0 -6 -4 -11 -10 -11 -13 0 -13 27 1 35 13 8 38 -23 39 -47 0 -10
5 -18 10 -18 6 0 10 -9 10 -20 0 -26 -7 -25 -31 3 l-18 22 -1 -37 c0 -45 8
-68 25 -68 25 0 36 -26 24 -56 -7 -16 -11 -33 -10 -38 1 -4 -5 -19 -14 -32
-19 -29 -19 -35 0 -27 13 4 15 -2 13 -30 -1 -23 -6 -33 -14 -30 -8 3 -11 -2
-7 -16 4 -16 1 -19 -17 -14 -17 4 -20 11 -16 29 4 14 2 24 -4 24 -6 0 -9 -4
-6 -9 3 -5 -2 -11 -12 -13 -13 -4 -17 2 -19 21 0 14 -6 27 -12 29 -19 6 -12
20 17 34 30 16 65 13 41 -3 -9 -6 -10 -9 -2 -9 15 0 19 7 27 53 l7 38 -38 -20
c-21 -10 -45 -31 -53 -45 -7 -15 -18 -25 -24 -23 -6 2 -17 -3 -25 -11 -13 -12
-17 -10 -31 19 -13 28 -13 36 -2 48 20 21 -12 51 -57 51 -20 0 -45 8 -56 16
-19 15 -19 15 9 8 19 -4 31 -2 36 6 6 10 18 5 48 -18 34 -28 41 -30 52 -17 19
23 -5 45 -49 46 l-36 1 33 11 c23 7 39 7 57 -1 22 -10 25 -9 25 9 0 11 -9 23
-22 28 -13 5 -22 11 -20 15 7 18 1 66 -8 61 -5 -3 -10 -23 -10 -44 0 -21 -6
-43 -13 -49 -23 -19 -148 -36 -211 -28 -55 7 -57 9 -35 20 15 8 28 9 36 3 8
-6 18 -3 29 8 9 9 23 14 31 11 8 -3 12 -2 9 3 -8 12 -56 11 -56 -1 0 -6 -7 -8
-15 -5 -8 4 -17 2 -20 -3 -6 -9 -80 -5 -164 10 -30 6 -70 10 -88 10 -34 0 -41
8 -22 27 13 13 42 6 33 -8 -3 -5 0 -9 5 -9 6 0 11 5 11 10 0 19 31 23 43 6 11
-16 15 -16 41 -2 16 8 46 18 67 21 21 4 40 13 43 21 5 12 -1 14 -32 8 -20 -4
-39 -10 -42 -13 -3 -4 -27 -6 -53 -6 -27 0 -51 -3 -53 -7 -3 -5 -10 -6 -15 -2
-11 6 -105 15 -156 14 -18 0 -33 4 -33 9 0 4 -12 6 -26 3 -19 -3 -25 -1 -20 7
4 6 14 11 22 11 8 0 14 7 14 15 0 13 2 14 14 3 8 -7 13 -15 11 -18 -8 -12 104
-10 187 5 50 8 93 13 96 10 3 -3 0 -5 -6 -5 -7 0 -12 -4 -12 -10 0 -17 20 -11
44 13 12 12 48 38 79 57 32 19 69 47 83 61 25 27 26 27 45 8 10 -10 24 -19 29
-19 16 0 12 66 -5 80 -8 7 -15 20 -15 29 0 13 2 13 9 2 14 -21 31 -3 31 32
l-1 32 -14 -25 c-17 -30 -20 -21 -3 15 14 31 14 31 33 1z m75 -39 c0 -19 -29
-21 -42 -2 -10 13 -2 21 21 21 14 0 21 -7 21 -19z m-693 -300 c-6 -19 -23 -18
-24 2 -1 14 3 18 13 14 8 -3 13 -10 11 -16z m36 1 c3 -10 8 -10 21 2 16 13 20
12 31 -3 11 -15 14 -15 25 -2 14 16 30 11 30 -10 0 -10 -18 -13 -69 -14 -64 0
-69 1 -64 19 6 23 19 26 26 8z m907 -29 c0 -11 -4 -17 -10 -14 -6 4 -17 1 -25
-5 -12 -10 -15 -10 -15 0 0 13 28 39 43 40 4 0 7 -9 7 -21z m-876 -19 c-7 -7
-19 -7 -35 -1 -23 9 -22 10 11 10 23 1 31 -2 24 -9z m856 -80 c-12 -23 -8 -25
21 -10 10 6 19 7 19 3 -1 -17 -29 -121 -44 -162 -14 -37 -14 -42 -1 -37 19 7
19 5 -7 -49 -12 -25 -29 -45 -37 -45 -12 0 -12 3 1 18 22 25 43 66 29 58 -21
-13 -31 4 -16 28 8 12 12 25 9 28 -3 4 1 20 10 36 18 36 45 112 39 112 -2 0
-16 -8 -30 -17 -26 -17 -27 -17 -19 2 4 11 13 40 19 65 10 38 12 41 15 18 2
-15 -2 -36 -8 -48z m-282 -73 c7 -15 12 -38 9 -50 -3 -21 -4 -21 -11 -2 -4 11
-14 32 -22 47 -17 32 -18 41 -1 36 6 -3 18 -17 25 -31z m38 -82 c-6 -17 9 -20
20 -4 7 12 26 -13 30 -39 2 -8 6 -17 10 -20 4 -4 4 10 1 31 -3 20 -2 37 3 37
16 0 18 -74 2 -92 -21 -25 -32 -22 -32 6 0 13 -3 32 -6 41 -6 14 -9 13 -30 -6
l-23 -22 -11 28 c-6 15 -9 28 -8 29 2 0 12 6 23 13 27 16 28 16 21 -2z m23
-77 c-1 -25 -3 -27 -6 -10 -4 20 -7 21 -21 10 -12 -9 -12 -6 2 10 25 29 26 28
25 -10z m101 -2 c0 -13 6 -26 13 -29 7 -3 1 -9 -15 -15 -14 -6 -29 -16 -33
-21 -7 -13 42 4 62 21 10 8 13 6 13 -5 0 -9 -9 -19 -21 -22 -16 -5 -19 -12
-15 -31 4 -14 2 -24 -4 -24 -5 0 -10 7 -10 15 0 9 -12 20 -27 26 -20 7 -23 13
-15 21 7 7 12 20 12 31 0 23 18 57 30 57 6 0 10 -11 10 -24z m60 -16 c0 -5 -7
-10 -15 -10 -8 0 -15 5 -15 10 0 6 7 10 15 10 8 0 15 -4 15 -10z m-20 -82 c0
-13 -5 -30 -11 -38 -9 -12 -10 -11 -6 7 3 12 0 24 -6 26 -12 4 -1 27 14 27 5
0 9 -10 9 -22z m318 -227 c-7 -9 -14 -18 -15 -20 -2 -2 -3 10 -3 29 0 28 2 31
15 20 12 -10 13 -16 3 -29z m-341 7 c58 -14 73 -37 47 -75 -10 -16 -11 -23 -3
-23 7 0 10 -2 7 -5 -3 -4 -18 -3 -34 1 -25 6 -26 8 -9 15 14 5 15 8 5 9 -8 1
-25 3 -37 4 -13 2 -23 -1 -23 -6 0 -4 -9 0 -20 9 -19 16 -19 18 -3 25 10 3 12
7 6 7 -7 1 -13 9 -14 19 0 13 -3 11 -9 -6 -7 -15 -6 -29 2 -42 7 -10 8 -23 4
-27 -5 -4 -11 -3 -13 4 -5 13 -43 4 -95 -21 -17 -9 -33 -16 -35 -16 -6 0 2 44
11 58 13 21 3 21 -18 1 -11 -11 -14 -19 -8 -19 6 0 9 -6 6 -14 -3 -8 -1 -23 5
-34 9 -17 8 -19 -9 -15 -19 5 -29 -11 -12 -20 4 -2 1 -2 -5 -1 -7 2 -19 -6
-27 -18 -12 -16 -20 -19 -43 -13 -35 10 -43 12 -70 13 -31 3 -29 22 2 22 33 0
95 40 95 63 0 9 8 17 18 18 10 0 12 3 4 6 -28 11 54 55 150 78 70 17 65 17
125 3z m-304 -98 c-3 -11 -9 -20 -14 -20 -10 0 -12 24 -2 33 13 13 21 7 16
-13z m537 5 c0 -8 -4 -15 -10 -15 -5 0 -10 7 -10 15 0 8 5 15 10 15 6 0 10 -7
10 -15z m-232 -38 c-2 -13 -16 -26 -37 -34 -29 -12 -33 -12 -28 0 4 11 0 13
-14 10 -15 -4 -18 -2 -13 13 4 14 3 16 -4 5 -5 -7 -16 -18 -23 -23 -12 -7 -11
-9 1 -7 64 7 44 -17 -22 -25 -29 -4 -63 -10 -75 -13 -13 -3 -23 -1 -23 6 0 12
36 38 60 43 8 2 18 7 22 12 3 5 14 10 25 11 10 1 29 7 43 12 62 26 93 22 88
-10z m-334 6 c4 -10 4 -14 0 -10 -4 4 -13 -1 -20 -11 -17 -24 -28 -9 -12 17
16 25 24 26 32 4z m391 -15 c-19 -11 -30 -5 -21 11 4 6 14 7 22 4 15 -5 14 -7
-1 -15z"/>
<path d="M1374 1759 c-9 -10 -23 -19 -31 -19 -8 0 -11 -4 -8 -10 16 -25 85 -4
85 26 0 21 -28 23 -46 3z"/>
<path d="M1190 1717 c0 -10 5 -17 11 -17 5 0 7 -5 3 -11 -4 -8 -9 -7 -15 2 -6
11 -11 11 -21 1 -9 -9 -9 -12 3 -12 12 0 12 -2 -1 -10 -25 -16 41 -12 70 5 24
13 24 14 5 21 -11 4 -28 14 -37 22 -16 14 -18 13 -18 -1z"/>
<path d="M1263 1720 c2 -6 23 -20 47 -31 l45 -19 -24 20 c-13 11 -31 20 -41
20 -10 0 -21 5 -23 10 -4 7 -5 6 -4 0z"/>
<path d="M1277 1538 c-10 -5 -28 -8 -38 -5 -12 3 -19 1 -17 -5 5 -15 48 -21
48 -7 0 5 4 8 9 4 5 -3 13 0 16 6 10 16 2 19 -18 7z"/>
<path d="M1456 1495 c-26 -50 -27 -58 -14 -71 22 -22 68 -2 68 29 0 13 -4 27
-9 33 -5 5 -11 21 -13 37 -3 25 -5 23 -32 -28z"/>
<path d="M1396 1408 c-17 -27 -31 -78 -21 -78 14 0 65 42 65 53 0 7 -7 20 -15
30 -13 18 -14 18 -29 -5z"/>
<path d="M1516 1300 c-11 -3 -15 -9 -10 -13 10 -6 42 9 34 16 -3 3 -14 1 -24
-3z"/>
<path d="M1370 871 c0 -8 -7 -11 -15 -7 -19 7 -20 -8 -1 -23 11 -9 15 -7 19
11 4 12 4 24 2 27 -3 2 -5 -1 -5 -8z"/>
<path d="M1300 823 c0 -14 2 -15 9 -4 5 8 14 10 21 6 9 -5 11 -4 6 3 -11 18
-36 14 -36 -5z"/>
<path d="M1214 785 c-4 -9 -4 -19 0 -22 3 -4 6 1 6 10 0 19 15 23 23 7 3 -6 4
-5 3 2 -4 19 -25 21 -32 3z"/>
<path d="M1704 1686 c-6 -16 20 -56 38 -56 16 0 8 37 -12 55 -18 16 -20 16
-26 1z"/>
<path d="M1800 1669 c0 -9 7 -22 15 -29 8 -7 13 -16 10 -20 -2 -4 6 -17 19
-29 21 -20 24 -21 30 -5 4 11 1 21 -9 26 -16 10 -27 21 -50 53 -12 16 -14 17
-15 4z"/>
<path d="M1764 1635 c7 -39 16 -48 32 -34 20 16 17 36 -5 49 -28 15 -32 13
-27 -15z"/>
<path d="M1755 1590 c10 -11 24 -20 30 -20 7 0 15 -7 19 -15 9 -25 36 -18 36
9 0 27 -22 40 -39 23 -8 -8 -16 -6 -29 6 -26 24 -39 21 -17 -3z"/>
<path d="M1878 1569 c-11 -6 -15 -16 -11 -26 4 -10 2 -14 -5 -9 -24 15 -20
-14 5 -34 30 -23 41 -14 23 20 -11 20 -10 21 10 15 18 -6 21 -3 18 16 -4 26
-16 32 -40 18z"/>
<path d="M1815 1505 c33 -31 94 -84 135 -117 41 -33 77 -64 78 -69 2 -5 8 -7
13 -3 5 3 -28 35 -73 71 -46 36 -105 86 -133 112 -27 26 -57 51 -65 55 -8 4
12 -18 45 -49z"/>
<path d="M1930 1531 c0 -11 25 -37 42 -44 10 -4 10 -7 0 -15 -17 -12 -12 -44
7 -50 10 -3 12 1 9 15 -4 16 -1 18 24 15 28 -4 29 -3 18 17 -6 12 -21 26 -34
30 -12 5 -28 16 -35 25 -15 18 -31 21 -31 7z"/>
<path d="M1907 1490 c-3 -13 3 -24 19 -35 23 -15 24 -14 24 8 0 22 -16 47 -31
47 -4 0 -9 -9 -12 -20z"/>
<path d="M2050 1440 c0 -5 -9 -10 -21 -10 -15 0 -19 -5 -15 -15 3 -8 1 -15 -4
-15 -21 0 -9 -20 15 -26 14 -3 30 -15 36 -25 11 -21 34 -25 44 -9 4 6 -10 17
-29 25 -40 17 -42 20 -22 40 12 12 15 11 20 -11 5 -18 12 -24 22 -20 10 4 18
-1 21 -14 7 -28 33 -26 32 3 0 21 -1 21 -9 2 -8 -18 -9 -17 -9 8 -1 16 -5 26
-11 22 -6 -3 -13 0 -16 9 -7 19 -54 50 -54 36z"/>
<path d="M1716 1408 c4 -13 13 -44 19 -69 14 -52 41 -104 31 -59 -15 67 -15
73 -3 40 8 -19 20 -65 27 -102 7 -38 17 -68 22 -68 5 0 6 10 2 23 -14 45 -12
63 7 64 10 1 19 -3 19 -8 0 -6 5 -7 10 -4 6 4 10 -5 10 -21 0 -24 3 -26 35
-22 24 3 35 0 35 -9 0 -7 5 -13 11 -13 6 0 9 -6 6 -14 -3 -8 -2 -16 2 -18 5
-2 12 -14 16 -27 6 -20 4 -23 -9 -18 -9 4 -16 1 -16 -4 0 -6 8 -9 19 -6 15 3
17 0 13 -16 -5 -18 -1 -17 31 9 49 39 51 83 2 64 -20 -8 -25 -3 -46 41 -17 37
-27 48 -38 43 -9 -3 -21 -8 -27 -10 -6 -3 -16 12 -22 33 -13 42 -8 59 7 22 6
-15 10 -18 10 -8 1 9 -6 22 -14 29 -13 10 -19 10 -33 -4 -21 -18 -42 -21 -42
-5 0 19 -40 99 -50 99 -6 0 -10 5 -10 10 0 24 19 6 45 -42 15 -29 29 -54 31
-56 4 -6 44 23 44 32 0 5 -9 1 -19 -8 -19 -17 -20 -16 -41 26 -36 71 -102 130
-84 76z"/>
<path d="M2162 1348 c2 -15 9 -23 21 -22 10 1 17 -5 17 -15 0 -14 2 -14 10 -1
9 14 14 7 11 -13 -1 -5 3 -6 9 -2 5 3 10 -1 10 -9 0 -8 5 -18 12 -22 7 -4 8
-3 4 4 -9 15 4 15 24 1 11 -8 12 -12 3 -16 -7 -2 -13 -19 -12 -36 1 -29 2 -28
15 11 3 11 7 10 20 -2 8 -9 20 -13 25 -10 6 3 2 12 -8 19 -26 19 -13 26 48 27
30 1 57 6 61 12 5 8 8 7 8 -1 0 -7 6 -13 14 -13 8 0 17 -6 19 -12 3 -7 6 -3 6
10 1 12 5 22 10 22 5 0 8 -11 7 -25 0 -14 -5 -25 -9 -25 -5 0 -5 -4 -2 -10 3
-5 -4 -10 -15 -10 -14 0 -20 -5 -17 -12 19 -47 19 -48 1 -48 -13 0 -8 -6 14
-16 17 -9 32 -20 32 -25 0 -14 36 -10 49 5 9 11 9 15 0 18 -8 3 -4 12 11 26
13 12 19 22 13 22 -7 0 -18 -7 -27 -15 -13 -14 -16 -13 -25 2 -14 24 -14 -2
-1 -28 8 -15 7 -19 -3 -19 -18 0 -39 24 -30 33 3 4 -2 17 -13 28 l-19 22 32
-5 c26 -3 30 -2 22 8 -6 7 -7 19 -3 26 12 19 12 48 1 55 -28 17 -160 19 -202
3 -26 -10 -32 -7 -64 23 -20 19 -46 40 -59 47 -22 11 -23 10 -20 -12z"/>
<path d="M2100 1325 c0 -3 10 -15 21 -26 18 -18 25 -20 40 -10 15 9 19 8 19
-4 0 -8 5 -15 10 -15 6 0 10 -8 10 -17 1 -17 1 -17 11 0 8 14 6 22 -13 37 -27
22 -48 26 -49 8 0 -7 -4 -3 -9 10 -8 18 -40 33 -40 17z"/>
<path d="M760 1299 l-25 -21 28 6 c15 4 27 2 27 -4 0 -18 47 -10 66 11 19 22
19 22 -8 16 -14 -4 -33 -10 -41 -13 -9 -3 -17 1 -19 10 -2 13 -7 12 -28 -5z"/>
<path d="M898 1303 c-44 -11 9 -47 55 -38 57 12 67 16 67 32 0 12 -7 14 -32 9
-18 -3 -36 -12 -40 -19 -5 -8 -8 -7 -8 6 0 17 -9 19 -42 10z"/>
<path d="M2060 1301 c0 -4 9 -16 20 -26 11 -10 20 -14 20 -9 0 5 -9 17 -20 27
-11 9 -20 13 -20 8z"/>
<path d="M1030 1293 c0 -5 10 -21 23 -37 18 -22 28 -27 45 -22 31 10 17 27
-16 21 -25 -5 -25 -5 -4 4 36 16 28 41 -13 41 -19 0 -35 -3 -35 -7z"/>
<path d="M690 1265 l-23 -25 24 0 c30 0 49 17 42 36 -7 20 -16 17 -43 -11z"/>
<path d="M2529 1283 c0 -5 -2 -20 -4 -34 -3 -22 0 -26 15 -22 10 3 27 0 39 -7
17 -9 22 -8 27 5 11 27 21 16 20 -22 -2 -31 -6 -38 -30 -46 -21 -7 -26 -14
-23 -29 4 -14 -2 -22 -19 -30 -25 -11 -26 -20 -10 -59 5 -12 0 -18 -21 -22
-29 -5 -48 2 -25 10 6 3 12 9 12 14 0 5 -9 4 -20 -3 -10 -7 -23 -9 -27 -5 -4
5 -2 11 4 15 14 9 -6 74 -25 80 -11 3 -10 -2 2 -20 16 -24 15 -25 -20 -36 -30
-9 -35 -8 -30 4 3 8 1 14 -5 14 -6 0 -8 4 -4 9 3 5 -8 19 -25 31 -16 12 -30
29 -30 38 0 13 4 12 20 -6 18 -19 50 -21 50 -2 0 4 11 5 25 2 26 -5 31 3 15
28 -8 13 -13 13 -31 2 -20 -13 -21 -12 -15 13 5 20 4 25 -6 19 -7 -5 -20 -9
-28 -11 -8 -1 -20 -9 -26 -18 -9 -12 -14 -13 -20 -4 -5 9 -11 7 -21 -6 -7 -11
-13 -15 -13 -11 0 4 -7 0 -16 -9 -13 -13 -19 -13 -33 -3 -12 10 -11 7 2 -9 18
-21 18 -21 0 -25 -16 -3 -15 -5 6 -17 23 -13 24 -12 19 13 -4 20 0 27 16 32
12 4 24 12 28 18 4 6 10 7 14 3 9 -9 -15 -37 -33 -37 -21 0 -12 -44 10 -48 9
-2 17 1 17 7 0 6 -3 10 -8 8 -17 -5 -12 19 7 32 20 13 21 12 15 -18 -6 -26 -3
-32 19 -40 14 -5 28 -15 32 -20 9 -16 -18 -13 -41 4 -10 8 -22 15 -25 15 -11
0 -17 -50 -8 -56 5 -3 9 4 9 15 0 12 5 21 10 21 6 0 10 -12 10 -26 0 -14 4
-23 8 -20 4 2 14 1 22 -4 11 -7 12 -11 0 -24 -11 -14 -10 -16 4 -10 9 4 16 1
16 -6 0 -8 -9 -11 -25 -8 -17 4 -25 1 -25 -9 0 -8 5 -11 10 -8 6 3 10 0 10 -8
0 -16 24 -30 34 -20 3 4 6 31 5 62 0 31 -3 50 -6 44 -3 -9 -10 -10 -24 -3 -30
17 -23 25 25 27 38 3 49 -2 89 -38 55 -48 72 -95 64 -185 -5 -64 -38 -149 -74
-194 l-21 -24 -8 54 c-13 79 -34 78 -74 -1 -47 -92 -174 -218 -198 -195 -3 3
-12 0 -20 -7 -8 -6 -25 -12 -36 -12 -12 0 -20 -4 -19 -10 1 -5 -14 -11 -34
-13 -19 -1 -44 -7 -56 -14 -12 -7 -44 -13 -72 -15 -27 -1 -63 -4 -80 -7 -37
-5 -125 12 -125 25 0 5 -6 9 -12 9 -32 0 -88 23 -112 45 l-27 25 -72 -26 c-64
-22 -94 -26 -267 -32 -248 -9 -285 -3 -448 76 -23 11 -42 17 -42 12 0 -9 101
-60 118 -60 7 0 12 -3 12 -7 0 -11 -20 -40 -20 -29 0 5 -7 3 -15 -4 -8 -7 -13
-16 -10 -20 7 -11 -26 -37 -70 -56 -88 -36 -271 -7 -345 56 l-35 29 30 2 c37
2 61 0 103 -7 20 -3 32 -1 28 4 -3 5 -28 12 -56 15 -28 3 -60 13 -72 22 l-22
15 27 0 c15 0 83 11 150 25 67 14 136 27 152 30 17 2 58 11 92 19 34 7 98 17
142 21 104 9 113 20 73 81 -26 40 -28 50 -18 75 7 21 7 34 0 46 -13 21 -31 27
-31 11 0 -7 -4 -22 -9 -32 -6 -15 -4 -18 7 -12 8 4 3 -1 -11 -12 -14 -12 -21
-24 -17 -29 5 -4 12 -1 17 7 5 8 12 11 16 7 4 -4 2 -13 -4 -19 -13 -13 -16
-32 -4 -24 4 2 7 -8 6 -22 -1 -27 -24 -38 -31 -14 -3 6 0 12 6 12 6 0 8 7 4
16 -5 14 -9 13 -25 -7 l-19 -24 6 34 c4 18 8 39 9 45 1 6 9 22 19 36 9 13 17
32 17 42 0 16 -35 48 -52 48 -12 0 -10 -46 4 -75 10 -21 9 -29 -5 -43 -16 -16
-17 -15 -11 14 7 35 -7 52 -25 30 -8 -10 -7 -21 5 -45 8 -17 13 -37 10 -44 -3
-7 -7 -3 -11 10 -4 12 -13 19 -20 17 -10 -4 -12 1 -8 18 4 18 3 20 -6 8 -8
-11 -11 -12 -11 -2 0 7 14 26 31 41 21 20 30 36 27 52 -8 58 -99 10 -139 -73
-26 -55 -22 -71 26 -99 19 -12 35 -22 35 -24 0 -2 -24 -11 -53 -20 -28 -9 -56
-18 -62 -21 -5 -2 -20 11 -33 30 -19 29 -23 47 -23 117 0 95 16 146 62 191 25
25 34 29 62 23 17 -4 39 -14 49 -22 18 -16 32 -4 22 21 -4 11 -19 16 -45 16
-28 0 -39 4 -39 15 0 8 -7 15 -15 15 -8 0 -15 -4 -15 -9 0 -5 -16 -28 -35 -51
-44 -53 -69 -134 -63 -210 l4 -57 -83 -6 c-46 -3 -106 -3 -133 0 l-50 6 6 36
c9 55 34 131 62 186 36 73 138 170 214 204 100 46 252 63 344 40 56 -14 62
-24 27 -43 l-28 -15 31 -1 c26 0 33 5 36 25 5 22 0 26 -51 41 -31 10 -60 17
-64 15 -5 -1 -6 3 -2 9 3 5 -1 10 -9 10 -8 0 -18 -5 -21 -10 -8 -13 -52 -13
-60 -1 -3 6 -21 3 -42 -6 -26 -10 -38 -12 -41 -4 -4 13 -49 15 -56 2 -4 -5 0
-12 6 -14 13 -6 -33 -11 -64 -8 -10 1 -18 -2 -18 -8 0 -6 7 -7 17 -4 11 4 14
3 9 -5 -10 -17 -33 -15 -40 3 -3 8 -18 15 -33 15 l-28 0 29 -25 c16 -14 25
-25 20 -25 -6 0 -15 5 -21 11 -8 8 -19 8 -40 1 l-28 -10 28 -1 c15 -1 27 -3
27 -6 0 -2 -28 -33 -63 -67 -106 -107 -151 -204 -170 -371 l-12 -102 -30 0
c-19 0 -29 5 -27 13 1 9 -6 11 -25 6 -39 -9 -41 -14 -8 -14 27 0 28 -1 10 -20
-17 -18 -42 -19 -30 0 3 4 -4 6 -15 3 -11 -3 -20 -9 -20 -14 0 -5 7 -6 15 -3
13 6 20 -6 16 -28 0 -5 6 -8 15 -8 8 0 12 5 9 10 -3 6 0 10 8 10 8 0 17 6 20
14 5 12 13 12 44 3 21 -6 41 -15 44 -20 4 -5 10 -4 13 2 4 6 19 11 34 10 l27
0 -25 -11 c-33 -15 -39 -15 -84 -6 -33 7 -42 5 -61 -12 -20 -18 -28 -20 -58
-12 -20 6 -37 8 -39 6 -2 -2 -9 10 -15 27 -10 26 -10 29 3 19 9 -8 14 -9 14
-2 0 6 -8 16 -18 21 -9 6 -11 11 -4 11 6 0 12 7 12 16 0 8 -4 12 -10 9 -14 -9
-12 2 5 29 9 13 12 31 9 40 -9 24 -51 39 -74 26 -10 -5 -28 -10 -39 -10 -12 0
-21 -4 -21 -10 0 -12 2 -12 57 -1 31 6 40 5 37 -4 -3 -7 2 -20 11 -29 15 -15
15 -16 0 -16 -13 0 -15 -8 -11 -46 3 -25 8 -49 11 -54 3 -4 -20 -11 -50 -15
-30 -3 -55 -11 -55 -15 0 -9 23 -7 86 5 15 3 24 -3 33 -21 6 -15 10 -28 9 -29
-2 -1 -24 -8 -51 -15 -58 -16 -71 -31 -20 -23 47 7 96 31 88 42 -3 5 6 4 20
-2 30 -14 33 -30 5 -25 -42 7 -20 -46 47 -110 57 -55 101 -73 95 -38 -2 10 1
15 6 12 5 -3 16 2 23 12 13 15 12 16 -4 3 -14 -11 -17 -11 -17 0 0 9 -3 10 -8
4 -4 -5 -18 -10 -32 -10 -25 0 -30 19 -9 40 7 7 8 4 4 -7 -4 -10 -3 -18 3 -18
12 0 23 26 15 34 -4 3 -16 6 -27 6 -17 0 -12 8 27 47 26 25 47 50 47 55 0 4
19 -10 41 -32 49 -47 110 -68 225 -77 69 -5 87 -3 129 16 28 12 60 31 72 43
l22 20 -2 -21 c-1 -11 -6 -21 -12 -21 -7 0 -24 -15 -40 -34 -16 -19 -33 -32
-39 -30 -18 6 -39 -13 -33 -30 4 -9 14 -16 24 -15 16 0 16 1 -1 8 -14 5 -16
10 -8 15 7 4 17 4 22 1 6 -3 10 -1 10 6 0 8 4 8 15 -1 18 -15 3 -40 -24 -40
-14 0 -14 -2 -1 -10 19 -12 33 -13 25 -1 -3 5 4 12 15 16 11 3 19 9 18 13 -1
4 2 15 7 25 4 10 2 23 -4 31 -15 18 5 34 39 32 14 -1 31 2 37 7 7 5 20 7 28 3
11 -4 14 -2 9 7 -6 9 -3 8 8 -1 14 -11 17 -10 23 8 4 12 4 24 1 27 -3 3 6 12
20 20 31 15 46 17 24 3 -11 -8 -7 -9 15 -4 l30 7 -22 -22 c-13 -12 -23 -28
-23 -36 0 -8 -3 -14 -7 -14 -23 4 -35 -3 -30 -15 7 -18 -26 -57 -44 -53 -8 2
-11 2 -6 0 14 -9 7 -23 -12 -23 -15 0 -19 6 -18 26 2 21 -3 27 -19 29 -14 1
-20 -5 -21 -19 -1 -12 1 -15 4 -8 5 13 33 17 33 5 -1 -14 -25 -39 -48 -52 -13
-7 -21 -15 -19 -18 3 -2 15 0 26 7 14 7 21 7 21 0 0 -10 -5 -12 -53 -15 -32
-2 -49 -15 -21 -16 15 -1 13 -3 -6 -9 -27 -9 -73 -12 -52 -3 18 7 15 19 -12
48 -20 21 -25 23 -30 10 -3 -9 -11 -13 -17 -10 -7 5 -4 14 8 28 16 19 16 20 1
14 -10 -3 -20 -2 -23 3 -4 6 -17 10 -31 10 -14 0 -23 -3 -21 -7 3 -5 -1 -13
-8 -20 -10 -10 -14 -9 -19 2 -8 21 -56 20 -56 -1 0 -14 3 -14 15 -4 11 9 19
10 27 2 15 -15 -1 -35 -23 -29 -11 3 -19 1 -19 -5 0 -6 -10 -8 -24 -4 -17 4
-26 1 -30 -11 -7 -16 8 -33 30 -33 18 0 69 29 70 40 1 5 2 13 3 16 0 4 9 0 18
-7 9 -8 14 -9 10 -3 -4 7 0 17 7 23 11 9 16 9 22 0 4 -7 2 -15 -4 -17 -7 -2
-12 -13 -11 -25 0 -12 3 -16 6 -9 6 15 43 16 43 1 0 -6 -9 -13 -21 -16 -11 -3
-18 -11 -15 -18 3 -10 -10 -13 -50 -12 -29 1 -49 4 -43 7 5 4 22 6 38 5 17 -1
28 3 28 11 0 7 -4 11 -9 8 -16 -10 -108 -16 -125 -9 -20 9 -30 11 -57 13 -12
1 -16 7 -13 17 4 8 2 17 -3 20 -5 3 -10 -2 -12 -10 -3 -14 -5 -14 -23 -1 -20
14 -20 15 5 25 14 5 19 10 11 10 -11 1 -11 4 0 19 7 9 -1 4 -19 -12 -38 -35
-32 -46 37 -77 75 -34 101 -39 198 -40 99 0 149 10 231 47 29 13 55 24 58 24
3 0 11 6 18 13 8 6 24 21 38 33 13 11 47 52 76 91 l53 70 72 6 72 7 70 -75
c53 -55 86 -81 135 -104 206 -94 322 -121 519 -122 136 0 161 3 267 31 158 42
253 92 348 182 45 44 75 63 83 54 18 -17 -128 -166 -196 -201 -46 -23 -61 -42
-45 -57 11 -12 45 5 40 19 -3 8 -2 11 3 8 6 -3 9 -15 8 -27 -1 -15 -16 -28
-52 -44 -35 -17 -43 -24 -27 -24 28 0 102 37 102 51 0 6 4 8 9 4 6 -3 14 3 20
12 10 17 10 17 11 1 0 -10 6 -18 13 -18 6 0 -6 -12 -28 -25 -22 -14 -34 -25
-27 -25 20 0 72 29 72 40 0 6 5 9 12 7 8 -1 11 11 9 38 -3 39 -2 39 16 22 12
-10 36 -17 61 -17 51 0 57 16 7 17 -36 1 -65 17 -65 35 0 23 95 141 140 175
41 30 48 41 44 60 -4 15 -2 23 7 23 7 0 10 3 6 6 -3 4 1 13 10 22 10 10 13 26
10 49 -6 33 9 46 19 18 4 -8 10 -13 14 -10 5 3 -2 -15 -16 -40 -14 -24 -30
-47 -35 -50 -5 -4 -9 -11 -9 -16 0 -29 50 40 97 132 27 56 27 53 7 73 -25 25
-44 19 -60 -20 -8 -20 -33 -53 -55 -75 -43 -42 -72 -53 -45 -16 33 44 87 169
97 225 13 69 7 151 -20 253 -20 76 -69 184 -79 174 -3 -3 -12 4 -20 16 -8 11
-24 24 -36 30 -11 5 -28 13 -36 18 -17 11 -81 41 -87 41 -1 0 -3 -3 -4 -7z
m-165 -88 c-4 -9 0 -15 10 -15 17 0 22 -15 8 -24 -5 -3 -16 4 -26 16 -15 17
-16 22 -5 29 19 12 19 11 13 -6z m346 -60 c0 -18 -7 -38 -15 -45 -16 -13 -21
-35 -6 -26 5 3 11 -7 14 -22 5 -28 -7 -44 -33 -39 -17 3 -27 37 -11 37 6 0 7
-7 4 -17 -4 -11 -3 -14 5 -9 16 10 15 36 0 36 -25 0 -42 -19 -43 -46 0 -21
-10 -35 -35 -52 l-35 -24 35 7 c35 8 50 20 50 43 0 7 13 12 29 12 16 0 34 7
41 15 6 8 16 13 20 12 4 -1 8 3 8 8 0 6 -4 9 -9 7 -5 -1 -9 14 -9 33 0 19 4
35 9 35 10 0 24 -38 21 -59 -1 -7 3 -10 9 -6 19 11 12 -3 -18 -37 -23 -26 -27
-40 -24 -66 5 -32 6 -32 24 -16 27 25 23 7 -6 -28 -28 -33 -26 -49 5 -41 29 8
25 -6 -6 -17 -14 -6 -22 -15 -19 -20 4 -6 1 -18 -6 -26 -14 -18 -6 -29 16 -20
9 3 13 11 9 17 -4 8 -3 9 4 5 20 -12 14 -25 -14 -32 -29 -7 -52 -53 -33 -64 8
-5 7 -13 -2 -29 -21 -33 -28 -25 -23 29 5 53 1 58 -30 35 -11 -8 -23 -15 -26
-15 -12 0 -8 43 6 57 16 16 19 38 5 28 -5 -3 -13 0 -17 6 -4 8 -3 9 4 5 7 -4
12 -2 12 3 0 17 -18 13 -32 -7 -30 -41 -36 -33 -35 46 1 53 -4 87 -15 109 -15
30 -15 33 2 38 21 7 35 39 25 56 -4 6 2 19 14 30 12 11 21 27 21 36 0 8 12 26
27 39 25 22 28 22 35 6 13 -32 8 -48 -14 -49 -20 -2 -21 -1 -5 8 21 12 22 26
2 26 -8 0 -12 -4 -9 -9 3 -4 0 -8 -5 -8 -6 0 -11 -9 -11 -19 0 -11 -9 -26 -21
-35 -15 -10 -19 -20 -14 -36 5 -15 0 -29 -16 -46 -19 -21 -20 -24 -5 -30 25
-10 46 14 46 52 0 27 5 36 23 43 12 5 29 22 37 37 8 16 19 32 25 36 6 5 5 12
-3 20 -6 6 -12 18 -12 26 0 12 3 12 15 2 8 -7 15 -27 15 -45z m-354 -19 c19
-19 19 -43 1 -27 -8 6 -17 8 -20 4 -4 -3 -7 3 -7 15 0 26 6 27 26 8z m414
-158 c0 -5 -7 -8 -15 -8 -15 0 -20 21 -8 33 7 7 23 -11 23 -25z m29 -91 c1
-71 -27 -183 -66 -261 -45 -90 -72 -116 -119 -116 -37 0 -37 0 -19 20 10 11
25 19 34 18 11 -2 16 4 16 19 0 33 15 40 16 7 1 -21 3 -23 6 -9 3 11 10 27 17
35 18 22 38 72 31 78 -3 3 -5 0 -5 -6 0 -7 -5 -12 -11 -12 -6 0 2 17 18 38 44
57 79 143 52 127 -9 -6 -10 -4 -4 11 5 10 10 44 11 74 1 30 3 60 4 65 4 21 18
-42 19 -88z m-1959 -78 c13 -23 4 -41 -10 -20 -12 20 -37 7 -42 -23 -4 -21 -3
-24 8 -15 11 9 16 5 25 -20 6 -17 14 -29 17 -28 13 7 42 -32 30 -39 -6 -4 -15
1 -20 10 -7 12 -14 14 -28 6 -26 -14 -27 -14 -34 21 -5 26 -9 29 -28 23 -22
-6 -22 -6 -5 13 9 11 17 24 17 30 0 13 41 63 52 63 4 0 12 -9 18 -21z m1760
-18 c0 -5 -14 -21 -31 -35 -26 -22 -27 -26 -11 -26 11 0 25 -7 32 -15 7 -8 9
-15 5 -15 -4 0 -2 -7 5 -15 12 -15 6 -35 -11 -35 -5 0 -9 14 -9 32 l0 31 -23
-21 c-29 -28 -47 -28 -47 -1 0 15 4 19 19 14 11 -3 22 -1 26 5 3 5 -1 10 -9
10 -18 0 -19 4 -9 38 4 18 8 20 14 10 7 -10 9 -9 9 4 0 15 12 25 33 27 4 1 7
-3 7 -8z m54 -88 c-3 -21 -14 -49 -23 -63 -9 -14 -19 -32 -23 -40 -5 -11 -7
-9 -7 8 -1 16 -7 22 -25 22 -27 0 -42 -15 -26 -25 6 -4 18 -1 27 6 14 12 15 9
9 -29 -7 -52 -22 -82 -41 -82 -8 0 -15 -9 -15 -19 0 -11 -4 -23 -10 -26 -16
-10 -11 -27 7 -23 9 2 20 14 23 28 3 14 14 26 25 28 18 3 19 2 3 -8 -19 -12
-25 -40 -9 -40 5 0 21 14 35 32 14 18 29 29 33 24 4 -5 2 -11 -4 -13 -15 -5
-17 -23 -4 -23 5 0 12 9 16 19 6 21 42 35 51 20 3 -5 14 -9 25 -9 14 0 21 9
26 30 5 27 23 43 23 21 0 -30 -24 -63 -59 -81 -45 -22 -51 -24 -51 -12 0 5 10
14 23 20 16 8 17 11 6 11 -20 1 -43 -24 -35 -38 4 -5 1 -13 -5 -17 -6 -3 -15
-1 -19 6 -10 15 -52 9 -58 -9 -3 -10 0 -12 12 -8 10 4 15 3 11 -3 -8 -13 -42
-13 -50 0 -12 19 -45 11 -45 -11 0 -13 4 -18 13 -13 6 4 5 -1 -4 -10 -8 -9
-32 -18 -52 -20 -21 -2 -40 -6 -44 -10 -8 -7 -73 -8 -73 -1 0 3 9 15 20 27 11
12 20 28 20 35 0 7 6 13 13 13 7 1 4 6 -7 15 -10 7 -15 18 -11 24 3 6 0 20 -8
31 -13 18 -14 18 -31 -12 -17 -28 -26 -131 -13 -145 3 -2 29 -6 59 -7 40 -3
65 3 102 21 67 34 54 9 -23 -44 -64 -44 -86 -53 -78 -30 2 6 12 10 22 9 16 -3
17 -1 6 12 -14 17 -36 22 -26 7 3 -5 1 -12 -5 -16 -5 -3 -10 2 -11 12 0 15 -2
14 -11 -5 -6 -12 -17 -22 -25 -22 -11 0 -11 -3 -1 -14 11 -12 13 -12 16 0 4
17 18 18 28 3 8 -14 -16 -31 -35 -24 -7 3 -19 1 -25 -4 -6 -5 -27 -14 -46 -19
-19 -6 -62 -21 -95 -33 -53 -20 -80 -23 -220 -23 -210 0 -312 23 -495 113 -97
47 -103 52 -147 104 -49 56 -45 68 23 66 41 -2 58 -7 64 -20 6 -10 17 -15 29
-12 10 3 22 0 25 -6 4 -6 0 -11 -8 -11 -9 0 -16 -4 -16 -10 0 -5 6 -7 14 -4
19 7 32 -16 15 -27 -7 -4 -11 -10 -9 -12 7 -6 70 -17 70 -12 0 11 -24 55 -30
55 -4 0 -13 13 -20 30 -7 16 -16 27 -21 24 -5 -3 -6 2 -3 10 4 10 15 13 40 9
29 -5 33 -3 28 11 -8 22 2 20 27 -5 17 -17 29 -20 56 -16 28 5 33 3 24 -7 -9
-10 -7 -15 9 -19 11 -3 18 -1 14 4 -3 5 2 9 11 9 9 0 14 -4 11 -9 -3 -5 1 -14
9 -21 12 -10 18 -10 32 1 9 8 14 9 10 3 -10 -17 34 -26 52 -11 12 10 14 9 9
-4 -8 -21 44 -44 69 -30 16 9 16 10 -4 11 -13 0 -23 5 -23 11 0 16 43 -1 58
-22 7 -11 19 -19 25 -19 7 0 4 7 -7 15 -16 12 -17 16 -3 29 8 8 18 12 22 8 4
-4 10 -7 13 -8 4 0 15 -4 25 -9 20 -9 56 18 58 44 1 9 4 5 8 -9 8 -27 37 -30
57 -5 6 8 15 11 20 6 5 -5 19 -5 33 0 17 7 22 15 18 30 -3 13 -1 19 6 16 7 -2
13 -13 15 -25 2 -15 10 -22 26 -22 28 0 36 8 29 26 -4 11 -8 11 -21 -2 -15
-15 -16 -15 -23 2 -11 28 -10 34 5 34 7 0 26 7 42 15 22 11 31 12 43 2 9 -6
13 -7 9 -3 -4 5 -2 16 5 24 10 13 8 14 -12 7 -21 -6 -19 -3 11 23 19 17 57 64
84 104 l49 73 6 -45 c5 -33 3 -50 -9 -62 -20 -23 -35 -12 -20 15 10 20 10 21
-6 8 -9 -8 -15 -25 -14 -39 2 -14 -3 -27 -11 -30 -9 -3 -11 0 -6 7 5 9 1 9
-14 0 -15 -10 -17 -16 -8 -22 7 -5 3 -6 -10 -2 -21 6 -23 3 -23 -29 0 -19 5
-38 10 -41 6 -4 10 6 10 22 0 34 37 64 51 41 7 -10 9 -10 9 2 0 19 117 134
122 120 2 -5 22 -13 46 -16 33 -5 48 -2 63 12 20 18 27 40 9 29 -18 -11 -11 8
12 32 12 13 23 23 25 23 2 0 1 -17 -3 -37z m-1638 -69 c8 3 14 1 14 -4 0 -5
-19 -11 -42 -14 -55 -7 -157 -18 -185 -20 -12 0 -19 -3 -17 -6 5 -4 -245 -58
-275 -59 -32 -2 -1 9 69 24 40 8 114 31 164 49 110 41 166 53 166 36 0 -7 7
-10 15 -7 8 4 17 2 20 -3 9 -14 46 13 40 28 -3 8 -2 19 2 25 5 7 9 -2 11 -21
2 -24 7 -32 18 -28z m-527 20 c74 -5 95 -4 102 7 5 9 9 10 9 2 0 -6 8 -9 19
-6 11 3 21 -2 25 -12 5 -14 2 -16 -16 -11 -13 3 -78 6 -145 6 -105 0 -123 2
-123 16 0 10 6 14 18 10 9 -3 59 -8 111 -12z m2381 -11 c-1 -10 -7 -29 -15
-43 -14 -24 -14 -24 -12 17 1 27 7 43 15 43 6 0 12 -8 12 -17z m-190 -24 c0
-4 -6 -6 -12 -4 -7 3 -24 -11 -38 -31 -15 -22 -26 -31 -29 -23 -2 7 1 15 8 17
6 2 11 9 11 15 0 18 31 46 46 40 8 -3 14 -9 14 -14z m-2022 -4 c32 -11 3 -25
-95 -48 -184 -43 -220 -44 -214 -5 0 4 2 20 3 36 l2 29 146 -4 c80 -3 151 -6
158 -8z m-343 -134 c-16 -4 -45 -15 -63 -25 -45 -23 -52 -14 -10 13 19 12 48
20 68 20 l35 -1 -30 -7z m40 -22 c-6 -15 -45 -24 -45 -10 0 8 42 31 48 26 1
-1 0 -9 -3 -16z m2001 -58 c-9 -10 -13 -21 -9 -26 5 -4 2 -5 -5 -1 -12 7 -11
22 4 81 l8 30 8 -34 c7 -25 5 -37 -6 -50z m-2062 44 c-5 -22 -3 -24 22 -19 28
5 28 5 10 -15 -10 -11 -21 -19 -25 -17 -3 2 -16 -12 -28 -31 -13 -19 -18 -31
-13 -28 6 3 10 -1 10 -9 0 -9 -7 -16 -15 -16 -22 0 -19 37 5 62 11 12 20 27
20 32 -1 6 -10 0 -20 -13 -11 -13 -20 -18 -20 -12 0 6 -4 11 -10 11 -5 0 -8
-6 -6 -12 1 -7 1 -10 -1 -6 -2 4 -12 4 -21 1 -16 -6 -15 -5 1 14 9 11 17 24
17 30 0 9 28 28 78 52 1 0 0 -10 -4 -24z m611 5 c-3 -4 4 -10 15 -13 13 -3 18
-1 13 6 -4 7 0 8 11 4 10 -4 23 -7 29 -7 7 -1 0 -7 -15 -15 -20 -11 -34 -12
-53 -5 -17 7 -24 7 -20 0 3 -6 -3 -10 -15 -10 l-21 0 21 30 c12 17 26 28 31
24 5 -3 7 -9 4 -14z m55 -51 c0 -6 -44 -19 -83 -24 -26 -3 -32 14 -7 23 26 10
90 11 90 1z m1704 -31 c-10 -13 -22 -25 -25 -28 -3 -3 -18 -24 -33 -48 -16
-25 -31 -40 -38 -36 -7 4 -8 3 -4 -5 12 -18 -12 -40 -36 -33 -17 4 -20 2 -15
-11 3 -9 2 -19 -4 -22 -5 -4 -12 1 -15 9 -4 10 14 34 54 70 32 31 70 71 83 91
13 19 30 35 38 35 11 0 9 -6 -5 -22z m-1846 -66 c2 -7 -3 -12 -12 -12 -9 0
-16 7 -16 16 0 17 22 14 28 -4z m-147 -62 c12 0 28 -41 22 -57 -3 -7 -15 -13
-26 -13 -20 0 -20 1 -2 14 20 15 15 46 -9 46 -10 0 -12 7 -8 23 5 18 7 19 10
5 2 -10 8 -18 13 -18z m58 -14 c9 -11 8 -15 -5 -20 -22 -9 -23 -8 -21 14 2 23
10 25 26 6z m-204 -16 c3 -5 -3 -10 -14 -10 -11 0 -23 5 -26 10 -3 6 3 10 14
10 11 0 23 -4 26 -10z"/>
<path d="M2664 962 c-7 -4 -22 -29 -34 -55 -13 -27 -29 -51 -37 -54 -7 -3 -13
-12 -13 -20 0 -9 9 -4 25 13 14 15 25 31 25 37 0 5 6 5 13 -2 11 -8 18 -6 32
9 14 15 15 20 4 20 -12 0 -12 2 0 9 11 7 12 15 5 30 -5 12 -14 17 -20 13z"/>
<path d="M2576 911 c-4 -5 -3 -17 1 -27 6 -16 7 -16 20 2 7 10 13 21 13 26 0
11 -27 10 -34 -1z"/>
<path d="M2668 850 c-9 -10 -13 -22 -10 -26 4 -5 -1 -2 -11 5 -23 18 -31 10
-13 -14 12 -16 16 -17 30 -6 9 7 16 20 16 28 0 8 4 11 10 8 6 -3 7 1 4 9 -3 9
-7 16 -8 15 0 0 -8 -9 -18 -19z"/>
<path d="M2625 762 c-8 -21 -7 -21 20 -9 14 7 25 15 25 19 0 13 -39 4 -45 -10z"/>
<path d="M791 703 c0 -5 4 -17 9 -28 8 -18 9 -17 9 8 1 15 -3 27 -9 27 -5 0
-10 -3 -9 -7z"/>
<path d="M2497 609 c4 -15 8 -17 19 -8 18 15 18 16 -5 22 -14 3 -17 0 -14 -14z"/>
<path d="M2468 578 c0 -13 -1 -29 -1 -35 1 -7 -3 -13 -8 -13 -5 0 -9 -4 -9
-10 0 -17 25 -11 38 10 13 21 7 70 -9 70 -5 0 -10 -10 -11 -22z"/>
<path d="M2439 578 c-6 -21 -5 -38 2 -38 5 0 9 9 9 20 0 16 -7 28 -11 18z"/>
<path d="M2517 566 c-4 -9 -3 -15 2 -12 5 3 12 -11 16 -31 5 -26 9 -33 15 -23
5 8 6 18 4 22 -3 4 0 8 5 8 6 0 10 10 10 23 -1 16 -2 18 -6 5 -6 -24 -18 -23
-30 4 -8 19 -10 20 -16 4z"/>
<path d="M2406 542 c-4 -7 -11 -25 -16 -41 -7 -26 -5 -28 16 -28 20 0 21 1 8
14 -19 19 -18 29 1 13 12 -10 15 -10 14 1 -1 29 -15 53 -23 41z"/>
<path d="M2487 516 c-4 -10 -5 -21 -2 -24 9 -9 17 6 13 25 -3 17 -4 17 -11 -1z"/>
<path d="M2440 471 c-5 -11 -10 -27 -10 -36 0 -13 -4 -14 -22 -4 -23 12 -23
12 -4 -9 20 -23 15 -58 -6 -46 -10 5 -10 4 -1 -6 7 -7 29 -14 50 -15 38 -2 38
-2 37 36 -3 53 -14 67 -31 38 l-14 -24 5 25 c3 14 6 31 6 38 0 20 40 -5 40
-26 1 -15 2 -15 15 2 8 11 15 25 15 30 0 6 -4 5 -9 -2 -6 -10 -10 -10 -21 3
-17 21 -37 19 -50 -4z"/>
<path d="M2272 438 c-17 -17 -15 -48 3 -48 18 0 19 12 4 27 -9 9 -6 10 12 6
21 -6 23 -5 10 10 -16 20 -14 20 -29 5z"/>
<path d="M1486 411 c5 -3 10 -13 12 -21 10 -42 78 -67 89 -33 7 19 -43 56 -78
58 -17 2 -28 0 -23 -4z"/>
<path d="M1320 395 c0 -9 6 -12 15 -9 8 4 15 10 15 15 0 5 -7 9 -15 9 -8 0
-15 -7 -15 -15z"/>
<path d="M1600 367 c0 -5 8 -7 19 -4 10 2 26 0 35 -5 10 -6 16 -5 16 2 0 11
-2 12 -42 14 -16 1 -28 -2 -28 -7z"/>
<path d="M2157 373 c10 -3 10 -10 2 -25 -16 -30 -2 -34 26 -8 27 25 19 40 -20
39 -11 0 -14 -3 -8 -6z"/>
<path d="M1366 362 c-3 -6 1 -13 10 -16 8 -3 13 -10 9 -15 -3 -5 -1 -12 5 -16
15 -9 12 17 -4 38 -8 10 -17 14 -20 9z"/>
<path d="M2210 345 c-22 -23 -22 -25 -4 -27 34 -2 69 3 81 14 18 15 16 24 -4
24 -10 1 -25 4 -33 8 -10 4 -25 -3 -40 -19z"/>
<path d="M1415 330 c4 -14 11 -32 16 -40 7 -12 8 -11 8 5 0 11 -7 29 -15 40
-16 19 -16 19 -9 -5z"/>
<path d="M1607 341 c-18 -6 -18 -7 0 -24 16 -14 22 -15 45 -3 16 9 31 10 42 4
20 -12 92 12 73 24 -18 11 -65 10 -89 -3 -14 -8 -23 -8 -31 0 -12 12 -15 12
-40 2z"/>
<path d="M1978 337 c-6 -8 -22 -11 -35 -9 -31 6 -29 -6 3 -19 21 -7 31 -6 45
7 11 10 19 21 19 26 0 12 -18 10 -32 -5z"/>
<path d="M2023 321 c-12 -19 -5 -24 53 -36 6 -2 20 -6 30 -9 13 -4 24 1 32 15
15 24 15 24 -15 33 -14 5 -23 3 -23 -3 0 -6 5 -11 12 -11 15 0 1 -13 -17 -16
-9 -1 -15 6 -15 17 0 10 -4 19 -9 19 -5 0 -15 2 -23 5 -7 3 -18 -3 -25 -14z"/>
<path d="M1553 323 c-7 -3 -13 -11 -13 -19 0 -15 14 -17 45 -5 19 8 19 8 0 18
-11 6 -26 8 -32 6z"/>
<path d="M1766 312 c-15 -3 -13 -7 13 -23 25 -15 36 -17 53 -8 14 7 17 14 10
21 -13 13 -46 2 -37 -12 3 -5 4 -10 0 -10 -3 0 -9 8 -13 18 -4 10 -15 16 -26
14z"/>
<path d="M1877 296 c-16 -12 -15 -14 12 -26 26 -10 33 -10 47 4 19 19 18 21
-16 29 -14 3 -33 0 -43 -7z"/>
<path d="M2151 280 l-22 -31 24 6 c14 4 28 2 32 -5 5 -8 10 -8 21 1 20 16 17
36 -5 49 -26 13 -24 14 -50 -20z"/>
<path d="M2258 303 c-21 -5 -24 -23 -5 -23 8 0 7 -3 -2 -9 -12 -8 -9 -11 13
-17 18 -4 31 -2 36 6 4 6 10 11 14 11 26 -4 27 2 1 19 -16 11 -32 19 -35 19
-3 -1 -13 -3 -22 -6z"/>
<path d="M1650 291 c0 -4 8 -15 18 -24 16 -15 20 -15 47 3 19 13 24 20 15 21
-61 6 -80 6 -80 0z"/>
<path d="M1590 282 c0 -5 16 -16 35 -25 39 -19 47 -7 13 17 -24 17 -48 21 -48
8z"/>
<path d="M1964 275 c-18 -14 -18 -14 4 -15 13 0 20 4 17 10 -3 6 -4 10 0 10 3
0 9 -9 13 -20 7 -18 10 -19 27 -6 23 16 20 21 -16 29 -16 4 -33 1 -45 -8z"/>
<path d="M1729 261 l-23 -18 23 -12 c25 -14 44 -5 21 9 -34 22 4 8 55 -20 30
-16 55 -26 55 -22 0 16 -24 32 -48 32 -16 0 -22 4 -19 14 3 8 -4 18 -18 24
-19 9 -28 7 -46 -7z"/>
<path d="M1837 263 c-16 -4 -15 -7 8 -25 21 -17 28 -18 41 -7 14 12 14 14 -2
26 -10 7 -20 12 -23 12 -3 -1 -14 -3 -24 -6z"/>
<path d="M2056 263 c-3 -4 -6 -16 -6 -27 0 -12 3 -16 8 -10 4 6 15 13 25 17 9
3 17 10 17 15 0 9 -35 13 -44 5z"/>
<path d="M1911 231 c-16 -12 -22 -24 -18 -35 4 -10 12 -14 17 -11 8 5 8 11 0
20 -8 9 -6 14 6 19 24 9 26 8 19 -14 -5 -16 -2 -20 17 -20 13 0 18 3 12 8 -17
11 -13 41 4 34 10 -3 13 -1 8 6 -10 17 -37 14 -65 -7z"/>
<path d="M2100 223 c0 -8 15 -11 45 -10 43 2 63 15 28 19 -56 4 -73 3 -73 -9z"/>
<path d="M1998 222 c-21 -4 -24 -19 -5 -19 6 0 22 -3 35 -7 12 -4 22 -4 22 1
0 13 -33 29 -52 25z"/>
<path d="M246 407 c-14 -10 -16 -16 -7 -22 15 -9 35 8 30 24 -3 8 -10 7 -23
-2z"/>
<path d="M643 1262 c-34 -16 -43 -32 -19 -32 16 0 63 36 56 43 -3 3 -20 -2
-37 -11z"/>
<path d="M821 1245 c-24 -19 -39 -35 -33 -35 6 0 16 -2 24 -5 7 -3 20 0 28 5
13 9 13 11 0 20 -12 9 -10 10 10 8 36 -3 54 10 39 28 -16 19 -18 19 -68 -21z"/>
<path d="M1129 1260 c28 -24 96 -28 104 -5 8 20 2 22 -68 24 l-60 1 24 -20z"/>
<path d="M747 1250 c-16 -19 -16 -20 4 -20 11 0 30 5 41 11 17 9 18 13 7 20
-21 13 -33 11 -52 -11z"/>
<path d="M989 1257 l-27 -12 24 -18 c27 -20 69 -23 60 -4 -3 6 -9 20 -12 30
-7 19 -9 20 -45 4z"/>
<path d="M2150 1260 c0 -5 11 -17 24 -26 14 -8 23 -21 20 -29 -3 -7 7 -17 25
-23 24 -9 31 -8 35 5 9 21 -3 31 -14 13 -6 -10 -10 -11 -10 -3 0 7 -7 10 -17
6 -10 -3 -15 -3 -11 2 4 4 -2 21 -13 36 -20 29 -39 38 -39 19z"/>
<path d="M2233 1240 c1 -11 5 -20 9 -20 11 0 10 28 -1 35 -6 3 -9 -4 -8 -15z"/>
<path d="M545 1231 c-22 -10 -46 -26 -54 -35 -24 -28 31 -20 72 12 57 43 50
53 -18 23z"/>
<path d="M912 1238 c-9 -9 -8 -16 5 -30 19 -22 36 -23 52 -4 9 10 6 17 -13 30
-30 19 -29 19 -44 4z"/>
<path d="M1926 1242 c-2 -4 4 -14 15 -20 19 -12 19 -11 9 8 -12 22 -16 24 -24
12z"/>
<path d="M2107 1242 c9 -6 2 -19 -26 -46 -34 -33 -38 -41 -28 -57 7 -11 18
-17 25 -14 7 3 10 0 7 -5 -14 -22 7 -8 39 27 l33 37 13 -23 c10 -19 10 -25 -1
-32 -7 -4 -16 -6 -20 -3 -4 2 -12 -3 -19 -11 -9 -10 -9 -15 -1 -15 6 0 11 3
11 8 0 4 11 8 25 8 15 1 22 -2 18 -9 -3 -6 -1 -7 5 -3 13 8 16 -23 4 -39 -11
-16 -29 -15 -29 1 0 9 6 13 16 9 12 -5 13 -3 4 6 -19 19 -46 2 -41 -26 3 -14
1 -25 -3 -25 -14 0 -11 -28 4 -33 7 -3 5 -6 -5 -6 -10 -1 -18 -5 -18 -11 0
-17 -28 -11 -39 7 -5 10 -13 14 -18 10 -4 -5 -1 -14 8 -20 9 -7 16 -20 16 -31
0 -17 -1 -18 -13 -1 -10 13 -20 15 -44 10 -28 -6 -31 -10 -26 -33 4 -18 3 -22
-2 -14 -8 11 -10 11 -15 -2 -4 -10 -1 -16 7 -16 15 0 30 -27 27 -50 -1 -11 3
-10 14 4 8 11 15 26 15 34 0 7 4 11 9 7 12 -7 51 42 51 64 0 12 2 13 8 3 10
-15 56 43 49 61 -3 7 6 18 19 24 46 22 26 -16 -81 -146 -111 -137 -189 -214
-242 -239 -36 -17 -40 -24 -19 -41 11 -9 15 -8 21 6 5 10 7 21 7 26 -3 11 12
9 25 -4 7 -7 19 -8 30 -4 15 7 13 9 -12 15 -25 6 -21 8 23 9 29 0 52 -3 52 -9
0 -9 -15 -14 -34 -11 -11 2 -36 -19 -36 -31 0 -20 33 -20 49 0 9 12 27 24 41
26 14 2 26 5 28 5 1 1 -2 9 -7 20 -9 16 -5 20 29 30 21 6 53 23 70 38 17 14
33 24 35 22 9 -10 -25 -39 -68 -59 -26 -12 -47 -28 -47 -36 0 -23 27 -16 49
13 26 32 40 23 17 -12 -14 -21 -14 -25 -2 -25 8 0 17 14 21 33 4 19 24 48 51
73 24 22 44 46 44 52 0 6 5 14 12 18 7 5 9 2 5 -9 -4 -11 1 -18 14 -22 12 -4
29 -15 40 -26 18 -18 18 -19 -3 -39 -12 -11 -18 -20 -13 -20 8 0 -17 -24 -64
-63 -12 -10 -38 -17 -62 -17 -35 0 -40 -2 -34 -19 5 -18 2 -19 -29 -14 -29 4
-36 2 -36 -10 0 -14 -5 -15 -27 -6 -17 6 -30 6 -36 0 -6 -6 -18 -5 -34 2 -21
9 -27 8 -34 -6 -10 -18 -49 -24 -49 -8 0 5 8 8 18 6 9 -1 11 0 4 2 -7 3 -10 9
-6 14 3 5 11 6 17 3 8 -4 7 -2 -1 7 -11 12 -14 12 -21 0 -11 -18 -61 -6 -61
14 0 22 -20 28 -38 13 -26 -22 -154 -94 -180 -103 -13 -4 -21 -9 -18 -12 8 -8
65 17 115 50 l44 30 44 -23 c28 -15 67 -25 105 -28 63 -4 234 23 244 39 3 5
11 9 19 9 15 0 73 37 99 63 9 8 19 17 24 19 9 3 77 140 88 178 11 37 10 63 -4
68 -17 5 -27 -25 -13 -42 8 -10 9 -16 1 -21 -5 -3 -10 -15 -10 -26 0 -13 -7
-19 -24 -19 -13 0 -27 -6 -29 -12 -4 -10 -6 -10 -6 -1 -1 7 -8 10 -16 7 -9 -4
-15 0 -15 9 0 8 6 18 13 20 7 3 5 6 -5 6 -10 1 -18 6 -18 12 0 5 5 7 10 4 6
-3 10 -1 10 4 0 6 9 20 19 30 16 16 18 26 11 51 -8 28 -7 31 8 25 9 -3 13 -3
9 1 -4 4 0 18 9 32 9 13 11 22 6 18 -6 -3 -13 0 -15 6 -3 7 -6 0 -6 -16 -1
-29 -2 -29 -17 -10 -15 18 -15 18 -9 -3 4 -14 2 -23 -4 -23 -14 0 -14 33 0 47
7 7 7 13 1 17 -14 9 -20 -3 -22 -44 -3 -59 -1 -68 19 -72 19 -3 19 -4 -1 -28
-21 -24 -21 -24 -15 -2 3 15 1 22 -9 22 -10 0 -14 -12 -14 -40 0 -27 -5 -43
-15 -46 -8 -4 -15 -15 -15 -25 0 -10 -7 -19 -15 -19 -13 0 -12 6 4 38 37 72
43 144 21 244 -19 88 -43 140 -83 186 -11 12 -25 22 -31 22 -7 0 -6 -4 1 -8z
m110 -316 c-9 -121 -51 -181 -161 -226 -30 -13 -52 -28 -49 -33 4 -6 -1 -8
-11 -4 -10 4 -32 7 -49 7 l-32 1 47 40 c26 22 89 93 140 157 85 108 106 131
117 132 2 0 1 -33 -2 -74z m-154 2 c4 -14 0 -26 -11 -34 -21 -16 -32 -17 -32
-4 0 6 5 10 10 10 6 0 10 11 10 25 0 31 16 33 23 3z m267 -156 c0 -13 -12 -22
-22 -16 -10 6 -1 24 13 24 5 0 9 -4 9 -8z"/>
<path d="M2419 1223 c-12 -15 -12 -16 4 -10 10 4 23 7 28 7 6 0 7 5 4 10 -9
15 -21 12 -36 -7z"/>
<path d="M662 1219 c-13 -5 -28 -6 -33 -3 -17 10 -59 -5 -59 -21 0 -19 10 -19
39 2 14 9 21 11 17 5 -14 -23 14 -21 41 3 31 27 30 28 -5 14z"/>
<path d="M1108 1223 c-36 -9 -12 -38 33 -41 25 -1 26 0 15 23 -11 25 -16 27
-48 18z"/>
<path d="M695 1206 c-11 -8 -17 -18 -13 -21 10 -10 78 4 78 15 0 6 -4 10 -9
10 -5 0 -15 2 -23 5 -7 3 -22 -1 -33 -9z"/>
<path d="M847 1201 c-25 -16 -26 -19 -10 -25 10 -3 23 -8 28 -11 6 -2 19 2 29
10 16 12 17 17 6 30 -15 18 -18 18 -53 -4z"/>
<path d="M1181 1203 c17 -29 49 -30 49 -3 0 21 -15 27 -25 10 -5 -8 -12 -7
-22 2 -15 12 -15 11 -2 -9z"/>
<path d="M435 1185 l-30 -25 27 0 c17 0 31 7 38 19 20 39 8 41 -35 6z"/>
<path d="M967 1186 c-21 -16 -11 -25 35 -33 31 -5 31 -4 16 18 -19 29 -29 32
-51 15z"/>
<path d="M1031 1178 c10 -18 44 -24 53 -10 9 14 -9 28 -36 27 -22 0 -24 -3
-17 -17z"/>
<path d="M762 1181 c-10 -6 -8 -10 9 -14 24 -7 39 -1 39 14 0 11 -30 12 -48 0z"/>
<path d="M1246 1173 c-9 -21 -9 -21 24 -38 29 -15 30 -15 30 7 0 29 -45 54
-54 31z"/>
<path d="M585 1171 c-16 -4 -29 -11 -27 -16 3 -14 120 -11 135 4 9 9 5 11 -23
10 -20 -2 -40 0 -45 2 -6 3 -23 3 -40 0z"/>
<path d="M1977 1162 c4 -15 11 -21 20 -18 8 3 19 6 24 6 5 0 9 5 9 10 0 7 -6
8 -17 1 -13 -7 -21 -5 -30 7 -10 15 -11 14 -6 -6z"/>
<path d="M371 1146 c-13 -14 -28 -24 -34 -23 -6 1 -12 -4 -13 -10 -1 -7 -2
-17 -3 -23 0 -5 -7 -10 -15 -10 -8 0 -17 -9 -21 -19 -3 -11 -17 -26 -30 -35
-14 -9 -32 -30 -40 -46 -9 -17 -20 -28 -25 -25 -6 4 -10 -9 -10 -29 0 -19 -6
-39 -13 -43 -21 -12 -29 -70 -12 -77 19 -7 28 10 21 39 -4 16 -1 25 10 29 22
9 24 8 24 -9 0 -8 4 -15 9 -15 15 0 20 27 8 40 -9 10 -9 11 2 5 11 -6 13 -4 8
7 -3 9 2 23 13 33 18 17 34 55 22 55 -4 0 -17 -16 -30 -36 -12 -19 -27 -32
-32 -29 -14 9 -12 25 3 25 7 0 21 17 31 37 12 26 20 33 25 24 6 -10 12 -7 24
10 9 12 14 26 11 30 -2 4 0 10 6 14 5 3 10 1 10 -6 0 -7 8 -5 20 6 11 10 19
23 17 29 -2 6 15 19 37 30 27 12 36 20 26 24 -8 3 -18 9 -21 14 -3 4 -16 -3
-28 -16z"/>
<path d="M471 1156 c-19 -22 4 -29 39 -11 16 8 30 18 30 20 0 12 -59 4 -69 -9z"/>
<path d="M1120 1161 c0 -2 7 -12 16 -22 16 -18 42 -15 56 5 5 8 8 7 8 -1 0 -7
9 -17 20 -23 16 -8 20 -8 20 4 0 9 -9 20 -20 26 -21 11 -100 20 -100 11z"/>
<path d="M1087 1151 c-17 -6 -16 -8 8 -19 32 -15 38 -13 22 9 -8 10 -19 14
-30 10z"/>
<path d="M1320 1115 c0 -14 8 -29 19 -35 28 -14 31 -13 31 13 0 16 -9 28 -25
35 -23 11 -25 10 -25 -13z"/>
<path d="M421 1117 c-36 -12 -54 -37 -27 -37 10 0 13 -7 10 -25 -5 -30 11 -32
45 -6 16 12 21 23 16 31 -7 11 -10 10 -14 -2 -5 -14 -8 -14 -19 -2 -11 12 -9
16 13 26 14 6 25 15 25 20 0 10 -7 10 -49 -5z"/>
<path d="M489 1110 c-24 -19 -24 -19 -3 -20 12 0 32 9 45 20 24 19 24 19 3 20
-12 0 -32 -9 -45 -20z"/>
<path d="M2400 1113 c0 -25 15 -38 25 -22 4 6 0 18 -9 27 -15 15 -16 15 -16
-5z"/>
<path d="M1170 1112 c0 -10 20 -34 43 -51 15 -12 17 -11 17 11 0 17 -8 29 -25
36 -31 14 -35 15 -35 4z"/>
<path d="M1252 1103 c1 -10 -1 -23 -5 -30 -10 -16 2 -43 19 -43 8 0 20 15 27
32 13 31 12 33 -11 45 -32 17 -34 16 -30 -4z"/>
<path d="M2481 1104 c1 -21 16 -47 21 -38 4 5 0 18 -8 29 -8 10 -14 15 -13 9z"/>
<path d="M958 1088 c-3 -8 -29 -20 -57 -28 -51 -14 -80 -34 -67 -47 4 -4 20 1
37 11 26 15 33 16 40 5 6 -10 9 -8 9 10 0 17 4 21 15 17 8 -3 22 -9 30 -12 17
-7 21 22 6 44 -7 11 -9 11 -13 0z"/>
<path d="M2056 1087 c-14 -10 -16 -16 -7 -22 15 -9 35 8 30 24 -3 8 -10 7 -23
-2z"/>
<path d="M2100 1071 c-7 -15 -7 -21 0 -21 12 0 25 28 17 36 -3 3 -10 -4 -17
-15z"/>
<path d="M1380 1057 c0 -21 27 -57 41 -57 11 0 0 63 -13 71 -21 14 -28 10 -28
-14z"/>
<path d="M2240 1075 c0 -3 9 -15 20 -27 11 -12 20 -17 20 -11 0 6 3 20 6 30 5
15 4 15 -5 3 -7 -10 -11 -11 -11 -2 0 6 -7 12 -15 12 -8 0 -15 -2 -15 -5z"/>
<path d="M351 1039 c-15 -44 -14 -46 14 -19 28 26 33 50 11 50 -8 0 -19 -14
-25 -31z"/>
<path d="M476 1058 c-9 -5 -16 -16 -16 -23 0 -10 -11 -15 -35 -15 -35 0 -41
-5 -27 -27 11 -17 51 -12 57 7 3 9 24 25 47 36 41 20 41 21 16 26 -14 3 -33 1
-42 -4z"/>
<path d="M1305 1050 c-5 -16 -1 -28 13 -42 20 -20 20 -20 27 2 5 16 1 28 -13
42 -20 20 -20 20 -27 -2z"/>
<path d="M990 1049 c0 -17 28 -40 35 -29 4 6 11 8 16 5 5 -4 9 3 9 14 0 12 -5
21 -11 21 -5 0 -7 -4 -4 -10 3 -5 2 -10 -4 -10 -5 0 -13 5 -16 10 -8 13 -25
13 -25 -1z"/>
<path d="M2022 1051 c-6 -3 -10 -15 -9 -26 1 -12 -5 -21 -18 -23 -11 -2 -24
-9 -30 -14 -7 -7 -1 -9 20 -5 26 4 28 4 12 -8 -10 -7 -26 -11 -36 -8 -20 5
-57 -42 -42 -52 5 -3 12 -1 15 4 3 5 16 7 28 3 17 -4 20 -2 15 11 -4 11 4 20
28 31 27 13 33 22 32 43 -1 15 4 28 13 31 12 4 13 3 2 -10 -11 -13 -8 -16 15
-21 31 -6 49 5 38 23 -5 8 -10 8 -21 -1 -11 -9 -14 -8 -14 4 0 16 -32 28 -48
18z"/>
<path d="M307 1013 c-10 -13 -16 -30 -14 -38 3 -7 -3 -21 -13 -30 -11 -10 -17
-22 -14 -27 8 -12 44 21 44 39 0 8 7 27 15 43 19 36 6 46 -18 13z"/>
<path d="M1126 1025 c4 -9 11 -14 16 -13 15 5 11 23 -6 26 -11 2 -14 -2 -10
-13z"/>
<path d="M780 1005 c-22 -23 -22 -51 0 -29 13 13 82 5 73 -9 -3 -6 -1 -7 5 -3
7 4 12 14 12 23 0 11 -7 14 -25 11 -19 -4 -25 -1 -25 13 0 26 -12 24 -40 -6z"/>
<path d="M932 1008 c18 -47 20 -60 7 -56 -7 2 -16 15 -19 29 -3 13 -14 25 -24
27 -12 3 -16 0 -11 -7 3 -6 12 -8 18 -4 7 3 4 -3 -5 -14 -23 -25 -23 -33 1
-33 11 0 22 -4 25 -9 3 -5 15 -7 26 -4 15 4 20 0 20 -13 0 -16 2 -17 10 -4 6
10 5 17 -5 23 -20 11 -19 27 1 27 10 0 14 7 12 23 -2 16 -11 23 -32 25 -21 3
-27 0 -24 -10z"/>
<path d="M1361 994 c-10 -22 -9 -30 5 -45 16 -18 40 -17 29 2 -4 5 0 9 7 9 10
0 10 2 -1 9 -10 6 -10 10 -1 13 7 2 5 9 -8 21 -18 16 -19 16 -31 -9z"/>
<path d="M1435 999 c-4 -13 -2 -27 7 -36 13 -12 16 -12 27 1 10 11 9 19 -1 35
-16 27 -25 26 -33 0z"/>
<path d="M1035 1000 c3 -5 0 -7 -8 -4 -8 3 -18 0 -22 -6 -10 -16 0 -23 23 -16
25 8 37 36 16 36 -8 0 -12 -4 -9 -10z"/>
<path d="M1286 985 c4 -17 11 -38 16 -47 5 -12 5 -18 -2 -18 -5 0 -10 -4 -10
-10 0 -5 4 -10 9 -10 9 0 37 69 29 73 -1 1 -13 11 -26 22 l-23 19 7 -29z"/>
<path d="M339 981 c-25 -20 -21 -38 5 -28 17 7 41 47 27 47 -5 0 -19 -9 -32
-19z"/>
<path d="M1070 980 c0 -13 7 -20 20 -20 13 0 20 7 20 20 0 13 -7 20 -20 20
-13 0 -20 -7 -20 -20z"/>
<path d="M1130 975 c0 -16 6 -25 16 -25 10 0 14 6 10 15 -3 8 -1 15 4 15 6 0
10 5 10 10 0 6 -9 10 -20 10 -15 0 -20 -7 -20 -25z"/>
<path d="M1180 965 c0 -15 4 -24 10 -20 6 3 10 12 10 20 0 8 -4 17 -10 20 -6
4 -10 -5 -10 -20z"/>
<path d="M365 950 c-10 -11 -14 -20 -9 -20 12 1 44 25 44 34 0 12 -17 6 -35
-14z"/>
<path d="M1000 930 c0 -13 7 -20 19 -20 14 0 18 5 14 20 -3 11 -12 20 -19 20
-8 0 -14 -9 -14 -20z"/>
<path d="M312 928 c-7 -7 -12 -21 -12 -32 0 -18 1 -19 20 -1 20 18 27 45 12
45 -4 0 -13 -5 -20 -12z"/>
<path d="M853 927 c-20 -25 -23 -36 -12 -43 7 -4 9 -3 5 4 -13 21 18 25 35 4
9 -12 26 -22 37 -22 12 0 23 -9 27 -19 6 -20 35 -37 35 -22 0 5 -7 11 -15 15
-8 3 -15 12 -15 21 0 8 -4 15 -10 15 -5 0 -25 13 -43 30 -26 23 -37 27 -44 17z"/>
<path d="M1060 920 c0 -13 7 -20 20 -20 24 0 27 25 4 34 -23 9 -24 8 -24 -14z"/>
<path d="M1132 934 c14 -13 -13 -44 -38 -44 -22 0 -44 -24 -31 -36 9 -10 57 8
57 22 0 9 12 14 35 14 36 0 44 10 23 27 -16 12 -55 27 -46 17z"/>
<path d="M1770 910 c0 -19 3 -21 12 -12 9 9 9 15 0 24 -9 9 -12 7 -12 -12z"/>
<path d="M2317 924 c-12 -12 -8 -26 5 -18 8 5 9 2 5 -9 -7 -19 8 -23 19 -6 8
13 -19 43 -29 33z"/>
<path d="M352 904 c-28 -19 -45 -51 -33 -59 10 -6 67 62 59 70 -2 3 -14 -2
-26 -11z"/>
<path d="M250 886 c0 -14 -3 -33 -7 -43 -6 -16 -5 -16 11 -4 9 8 15 20 12 28
-3 8 -1 11 4 8 6 -3 10 0 10 8 0 8 -7 17 -15 21 -11 4 -15 -1 -15 -18z"/>
<path d="M1872 873 c-13 -19 -22 -36 -20 -38 2 -2 14 12 27 31 13 19 22 36 20
39 -2 2 -15 -12 -27 -32z"/>
<path d="M1940 902 c-8 -4 -15 -13 -16 -19 -2 -29 -5 -33 -24 -33 -11 0 -20
-4 -20 -10 0 -13 6 -13 40 5 26 13 50 42 50 59 0 7 -11 7 -30 -2z"/>
<path d="M980 885 c-23 -12 -18 -22 10 -20 8 0 21 -6 29 -13 11 -11 12 -15 2
-22 -10 -6 -10 -9 -1 -15 6 -4 9 -13 6 -21 -8 -21 4 -17 30 12 29 31 29 34 4
34 -14 0 -20 7 -20 24 0 29 -27 38 -60 21z"/>
<path d="M736 875 c-7 -19 -5 -19 30 0 l29 15 -26 0 c-15 0 -29 -7 -33 -15z"/>
<path d="M1957 845 c-15 -14 -37 -25 -47 -25 -14 0 -18 -5 -13 -16 5 -13 7
-13 14 -2 5 7 6 -3 2 -24 -6 -42 4 -49 30 -20 19 21 23 57 6 46 -7 -4 -10 -2
-8 5 7 21 24 17 27 -6 2 -13 7 -23 12 -23 12 0 33 67 25 80 -9 15 -17 12 -48
-15z"/>
<path d="M271 838 c-8 -23 -3 -68 8 -68 4 0 18 11 31 25 25 26 21 47 -4 25 -9
-6 -21 -10 -28 -7 -8 4 -7 6 5 6 10 1 17 9 17 21 0 27 -19 26 -29 -2z"/>
<path d="M710 835 c0 -17 2 -18 24 -9 23 9 20 24 -4 24 -11 0 -20 -7 -20 -15z"/>
<path d="M2296 841 c-3 -5 1 -14 10 -21 12 -11 17 -11 27 -1 9 10 8 12 -8 9
-12 -2 -19 2 -17 10 2 14 -4 16 -12 3z"/>
<path d="M190 810 c0 -16 4 -30 9 -30 12 0 24 37 16 50 -12 20 -25 10 -25 -20z"/>
<path d="M708 783 c-23 -20 -35 -33 -25 -30 10 4 23 7 28 7 5 0 8 4 7 9 -2 4
8 18 22 29 14 12 22 21 18 22 -3 0 -26 -17 -50 -37z"/>
<path d="M1846 787 c4 -37 5 -38 27 -22 20 15 14 41 -13 48 -15 4 -18 0 -14
-26z"/>
<path d="M225 791 c-4 -15 -1 -28 9 -39 10 -12 12 -22 6 -32 -15 -23 -12 -30
10 -30 15 0 20 7 20 25 0 14 -5 25 -11 25 -6 0 -8 8 -5 18 4 10 0 27 -8 37
-13 18 -14 18 -21 -4z"/>
<path d="M125 773 c7 -30 28 -49 33 -32 7 20 -9 59 -24 59 -13 0 -15 -6 -9
-27z"/>
<path d="M174 748 c1 -13 7 -23 12 -23 5 0 10 10 12 23 2 15 -2 22 -12 22 -11
0 -15 -7 -12 -22z"/>
<path d="M2231 734 c-9 -20 -9 -30 0 -40 10 -12 16 -10 36 12 19 20 21 29 12
40 -17 21 -34 17 -48 -12z m39 -10 c0 -8 -6 -14 -14 -14 -9 0 -12 7 -9 20 6
22 23 18 23 -6z"/>
<path d="M1878 733 c-17 -4 -33 -32 -23 -41 3 -3 15 4 27 16 24 23 23 30 -4
25z"/>
<path d="M2201 728 c-1 -10 -8 -18 -16 -18 -8 0 -15 -4 -15 -10 0 -5 4 -10 9
-10 14 0 33 28 28 42 -4 8 -6 7 -6 -4z"/>
<path d="M118 700 c4 -25 7 -28 23 -19 15 8 17 14 9 29 -17 31 -37 25 -32 -10z"/>
<path d="M700 700 c0 -16 4 -30 8 -30 5 0 7 14 4 30 -2 17 -6 30 -8 30 -2 0
-4 -13 -4 -30z"/>
<path d="M1692 703 c-12 -32 -12 -64 -1 -57 5 2 5 12 2 21 -4 9 -2 14 3 11 5
-3 9 7 10 23 1 36 -1 36 -14 2z"/>
<path d="M166 694 c-12 -32 -7 -45 13 -34 26 13 27 13 28 -10 1 -16 -2 -20
-18 -15 -11 4 -19 2 -19 -4 0 -6 4 -11 9 -11 5 0 11 -8 14 -17 3 -15 6 -13 15
9 12 29 36 50 25 22 -4 -12 -2 -15 8 -12 8 2 15 14 17 26 3 17 -3 22 -32 28
-21 3 -36 12 -36 20 0 19 -16 18 -24 -2z"/>
<path d="M1620 685 c-7 -8 -19 -15 -26 -15 -8 0 -14 -8 -14 -17 0 -13 3 -14
12 -5 14 14 42 16 33 2 -3 -5 -1 -10 6 -10 7 0 9 -8 5 -22 -20 -74 -21 -69 13
-52 29 14 50 34 36 34 -4 0 -15 -5 -25 -10 -16 -9 -18 -7 -15 10 2 11 7 25 10
30 3 6 1 10 -5 10 -8 0 -8 6 0 20 9 16 8 20 -5 20 -9 0 -13 5 -10 10 9 15 -1
12 -15 -5z"/>
<path d="M1560 680 c0 -5 1 -12 3 -14 1 -2 -5 -12 -14 -22 -9 -11 -20 -26 -24
-34 -7 -13 -6 -13 7 -2 8 7 23 10 32 6 17 -6 23 11 7 20 -10 7 -9 25 2 44 5 7
4 12 -2 12 -6 0 -11 -4 -11 -10z"/>
<path d="M1308 614 c-12 -21 -24 -32 -26 -26 -5 17 -22 15 -22 -3 0 -9 -9 -15
-25 -15 -16 0 -31 -10 -42 -27 -21 -33 -33 -43 -53 -42 -13 1 -13 1 0 6 15 6
39 33 40 43 0 11 -40 9 -46 -2 -5 -7 -1 -9 9 -5 10 3 17 2 17 -3 0 -5 -9 -12
-20 -15 -11 -3 -20 -9 -20 -13 0 -4 -3 -17 -6 -30 -6 -21 -6 -22 22 -7 16 8
38 15 49 15 14 0 16 3 7 8 -16 11 22 62 46 62 15 0 15 -2 2 -10 -13 -8 -12
-10 3 -10 16 0 14 -6 -13 -40 -34 -43 -28 -53 11 -19 13 11 18 18 12 14 -7 -3
-13 -2 -13 2 0 5 6 15 13 22 6 6 12 22 12 34 1 12 6 21 13 19 7 -1 20 11 30
28 9 16 24 31 32 32 11 3 12 5 3 11 -9 6 -20 -4 -35 -29z"/>
<path d="M1430 642 c0 -7 -6 -12 -13 -12 -7 0 -13 -9 -14 -20 -2 -29 24 -24
31 6 4 15 5 29 1 32 -3 3 -5 0 -5 -6z"/>
<path d="M1074 622 c0 -15 5 -18 19 -13 25 10 26 25 2 29 -15 2 -21 -3 -21
-16z"/>
<path d="M1367 626 c-16 -13 -16 -14 -1 -20 9 -4 19 -4 22 -1 3 3 0 5 -8 5
-10 0 -10 3 0 15 15 18 11 19 -13 1z"/>
<path d="M1465 620 c-16 -18 -16 -20 0 -36 16 -16 17 -16 13 7 -2 18 1 24 14
23 10 -1 16 2 13 6 -3 5 1 11 7 13 7 3 4 6 -8 6 -11 1 -29 -8 -39 -19z"/>
<path d="M1879 628 c0 -2 -2 -11 -4 -21 -3 -15 -1 -16 11 -6 7 6 11 15 8 20
-5 9 -13 12 -15 7z"/>
<path d="M70 599 l-35 -20 30 6 c30 6 52 21 44 29 -2 2 -20 -5 -39 -15z"/>
<path d="M1127 613 c-15 -15 -5 -22 18 -13 15 6 25 6 25 0 0 -5 -16 -12 -36
-16 -27 -5 -33 -9 -22 -15 10 -5 28 -3 47 7 26 13 30 19 20 30 -12 15 -41 19
-52 7z"/>
<path d="M1588 602 c-23 -13 -44 -59 -33 -71 8 -7 55 10 55 20 0 6 -9 8 -20 4
-21 -7 -25 1 -11 24 5 7 14 10 20 7 6 -4 14 0 17 9 9 23 2 26 -28 7z"/>
<path d="M216 601 c-7 -11 3 -41 14 -41 4 0 13 7 21 16 10 13 10 17 -2 25 -18
11 -26 11 -33 0z"/>
<path d="M1990 595 c0 -8 7 -15 16 -15 14 0 14 3 4 15 -7 8 -14 15 -16 15 -2
0 -4 -7 -4 -15z"/>
<path d="M1327 565 l-17 -35 25 6 c33 8 49 -3 30 -22 -23 -23 -18 -36 8 -23
33 18 71 49 59 49 -6 0 -17 -6 -25 -14 -11 -12 -15 -11 -25 4 -8 13 -8 20 1
29 8 8 6 11 -7 11 -9 0 -14 -4 -11 -10 3 -5 -1 -10 -9 -10 -19 0 -20 5 -6 31
6 10 7 19 2 19 -4 0 -16 -16 -25 -35z"/>
<path d="M1491 572 c-6 -12 -9 -22 -6 -22 3 0 1 -10 -6 -22 -10 -19 -9 -20 7
-13 11 4 27 10 37 12 20 6 21 12 6 33 -9 13 -10 13 -6 -1 4 -13 1 -15 -15 -11
-13 3 -16 7 -8 12 7 4 10 14 8 21 -3 10 -8 7 -17 -9z"/>
<path d="M167 566 c-7 -16 1 -26 20 -26 7 0 13 9 13 20 0 23 -25 27 -33 6z"/>
<path d="M1018 540 c-21 -18 -27 -29 -18 -29 8 0 28 13 44 29 38 39 16 39 -26
0z"/>
<path d="M1415 560 c27 -12 35 -12 35 0 0 6 -12 10 -27 9 -25 0 -26 -1 -8 -9z"/>
<path d="M955 550 c-16 -6 -13 -8 13 -7 17 0 32 1 32 2 0 8 -28 11 -45 5z"/>
<path d="M1056 525 c-9 -13 -16 -31 -16 -39 0 -14 4 -14 35 1 19 9 35 24 35
32 0 14 -1 14 -10 1 -5 -8 -10 -11 -10 -6 0 5 -7 3 -15 -4 -13 -11 -14 -10 -9
4 3 9 10 16 15 16 5 0 9 5 9 10 0 18 -17 10 -34 -15z"/>
<path d="M1440 520 c-26 -20 -24 -35 3 -24 14 5 31 33 25 40 -2 1 -14 -6 -28
-16z"/>
<path d="M1288 518 c7 -7 8 -17 1 -30 -11 -21 -6 -22 23 -7 l20 11 -21 19
c-21 20 -43 27 -23 7z"/>
<path d="M326 355 c-19 -20 -19 -22 -4 -39 9 -10 16 -8 31 7 17 17 17 21 5 34
-13 13 -17 12 -32 -2z"/>
<path d="M367 320 c-22 -21 -14 -27 31 -24 31 2 33 0 28 -25 -3 -14 -3 -20 0
-13 3 6 10 10 15 7 5 -3 17 -1 28 4 14 8 20 8 23 -1 3 -7 10 -8 17 -3 11 6 9
10 -5 19 -11 6 -21 11 -24 11 -17 1 -70 29 -70 36 0 15 -24 9 -43 -11z"/>
<path d="M908 313 c6 -2 10 -9 7 -14 -4 -5 1 -6 9 -3 24 9 19 24 -6 23 -13 0
-17 -3 -10 -6z"/>
<path d="M185 269 c-11 -17 -2 -18 19 -3 17 12 17 14 4 14 -9 0 -20 -5 -23
-11z"/>
<path d="M2320 159 c0 -10 50 -18 55 -9 3 4 -9 10 -25 12 -17 3 -30 1 -30 -3z"/>
<path d="M2340 114 c-14 -7 -37 -14 -52 -14 -16 0 -28 -4 -28 -9 0 -11 62 -4
103 11 15 6 27 14 27 19 0 12 -20 10 -50 -7z"/>
<path d="M0 15 c0 -8 5 -15 10 -15 6 0 10 7 10 15 0 8 -4 15 -10 15 -5 0 -10
-7 -10 -15z"/>
</g>
</svg>
